<?xml version="1.0" encoding="UTF-8" standalone="no"?>
<!-- Generator: Adobe Illustrator 25.2.3, SVG Export Plug-In . SVG Version: 6.00 Build 0)  -->

<svg
   version="1.1"
   id="Layer_1"
   x="0px"
   y="0px"
   viewBox="0 0 1542 866.99999"
   xml:space="preserve"
   sodipodi:docname="02 - Saudi.svg"
   inkscape:version="1.3.2 (091e20e, 2023-11-25, custom)"
   width="1542"
   height="867"
   xmlns:inkscape="http://www.inkscape.org/namespaces/inkscape"
   xmlns:sodipodi="http://sodipodi.sourceforge.net/DTD/sodipodi-0.dtd"
   xmlns="http://www.w3.org/2000/svg"
   xmlns:svg="http://www.w3.org/2000/svg"><defs
   id="defs4" /><sodipodi:namedview
   id="namedview4"
   pagecolor="#505050"
   bordercolor="#eeeeee"
   borderopacity="1"
   inkscape:showpageshadow="0"
   inkscape:pageopacity="0"
   inkscape:pagecheckerboard="0"
   inkscape:deskcolor="#d1d1d1"
   inkscape:zoom="0.73645136"
   inkscape:cx="1030.618"
   inkscape:cy="443.34225"
   inkscape:window-width="2560"
   inkscape:window-height="1494"
   inkscape:window-x="3829"
   inkscape:window-y="198"
   inkscape:window-maximized="1"
   inkscape:current-layer="Layer_1" />
<style
   type="text/css"
   id="style1">
	.st0{fill:none;stroke:#374151;stroke-width:6.5455;stroke-miterlimit:3.2727;}
	.st1{fill:none;stroke:#EF4444;stroke-width:1.6364;stroke-miterlimit:3.2727;}
	.st2{fill:none;stroke:#3B82F6;stroke-width:1.6364;stroke-miterlimit:3.2727;}
	.st3{fill:none;stroke:#FBBF24;stroke-width:1.6364;stroke-miterlimit:3.2727;}
</style>



<path
   vector-effect="non-scaling-stroke"
   class="st1"
   d="m 1182.9776,224.23383 c 0,0 -148.8587,125.50951 -212.3613,179.54345 -1.7708,1.50676 -2.8593,6.5798 -1.984,9.79358 1.0741,3.94375 5.7647,5.83553 8.1927,9.12366 1.7746,2.4033 4.4954,4.70014 4.6109,7.68539 0.1942,5.01791 -2.1249,11.47368 -6.7289,13.47874 -9.6836,4.21724 -17.6487,4.71111 -26.571,6.16534 -14.0005,2.28191 -28.8285,-0.47471 -42.3983,3.65838 -29.8489,9.09138 -54.7588,29.93658 -81.9129,45.3075 -18.11907,10.25652 -35.7216,21.42864 -54.05126,31.30389 -4.8427,2.60904 -11.79109,2.74687 -14.76208,7.37635 -2.5434,3.9632 0.007,9.43512 -0.47616,14.11933 -0.73275,7.09679 -0.82911,14.54065 -3.6646,21.08751 -4.55993,10.5284 -11.68084,20.41041 -20.7037,27.49759 -7.50577,5.89555 -16.8791,9.80203 -26.30294,11.3138 -17.6647,2.83377 -35.7419,-7.17365 -53.4636,-4.72142 -8.68482,1.20176 -17.15343,4.69424 -24.58791,9.34167 -11.32607,7.08014 -22.4223,15.93085 -29.20213,27.4392 -3.04997,5.17713 -2.67343,11.72712 -4.42926,17.47361 -1.69252,5.53927 -2.02113,12.02836 -5.87372,16.35336 -8.58139,9.63365 -22.49082,12.95508 -34.67711,17.19084 -14.38509,5.00002 -29.86151,12.91828 -44.69544,9.47077 -10.69346,-2.48523 -17.0355,-13.86924 -25.90696,-20.33637 -7.6778,-5.59697 -14.30176,-14.08664 -23.61646,-15.96046 -12.05995,-2.42608 -24.03259,5.34832 -36.18888,7.23323 -7.45355,1.15572 -14.96066,2.04757 -22.49013,2.49277 -10.13701,0.59938 -20.36414,-0.82591 -30.46323,0.23552 -10.18935,1.07091 -20.27817,3.28711 -30.11329,6.15765 -27.90364,8.14413 -81.41982,31.22933 -81.41982,31.22933"
   id="path2"
   style="stroke:#ef4444;stroke-width:11;stroke-dasharray:none;stroke-opacity:1"
   sodipodi:nodetypes="csaaassaaaaaaaaaaaaaaaaaaaaac" /><path
   vector-effect="non-scaling-stroke"
   class="st2"
   d="m 256.73612,715.28804 c -38.68335,17.50168 -104.91947,45.40792 -126.57347,57.23452 -17.91348,9.7837 -19.59226,22.5162 -18.31019,35.8831 0.95317,9.9379 9.25987,19.6705 18.43575,23.604 13.88957,5.9542 31.57083,2.269 45.11963,-4.4245 23.18693,-11.455 33.12317,-40.0993 52.93277,-56.7256 12.93956,-10.8602 26.88679,-21.14564 42.48742,-27.62612 15.66009,-6.50518 32.83327,-9.40896 49.74533,-10.64918 18.14102,-1.33035 36.26954,3.87302 54.45578,3.51651 6.91176,-0.1355 13.89706,-0.5696 20.62789,-2.14656 7.13579,-1.67185 13.51394,-5.81872 20.60391,-7.67526 3.67473,-0.96225 7.46036,-1.84558 11.25815,-1.76627 3.65597,0.0763 7.54862,0.39736 10.75732,2.15128 3.93325,2.14997 6.44386,6.25354 9.33901,9.67566 3.00978,3.55762 4.90273,8.06341 8.31116,11.24115 5.00184,4.66331 10.71984,9.1835 17.3092,11.01249 10.90212,3.0261 22.80416,1.1919 33.93217,-0.85276 13.48739,-2.4782 26.49117,-7.62428 38.8077,-13.65374 10.12815,-4.95816 19.57989,-11.34407 28.44143,-18.318 14.00687,-11.02323 25.45549,-24.97269 38.71017,-36.88979 12.69142,-11.41069 24.69511,-23.88407 39.0513,-33.11315 13.55302,-8.71274 27.16054,-13.83238 43.74466,-20.5614 21.04867,-8.54051 44.04958,-14.39401 58.88608,-25.86066 30.94686,-23.91783 46.53937,-56.30092 74.11391,-81.63957 9.7856,-8.9921 22.2219,-17.86137 34.2885,-25.3878 7.5097,-4.68413 15.5282,-8.53124 23.5758,-12.21542 9.3707,-4.28989 17.4021,-6.5517 28.7056,-11.48505"
   id="path3"
   style="stroke:#3beaf6;stroke-width:11;stroke-dasharray:none;stroke-opacity:1"
   sodipodi:nodetypes="csaaaaaaaaaaaaaaaaaaasssaac" /><path
   vector-effect="non-scaling-stroke"
   class="st3"
   d="m 1182.9776,224.23383 c 0,0 41.5192,-33.84543 63.5217,-49.06885 52.5014,-36.32548 103.3795,-64.10744 162.2855,-105.801666 12.2806,-8.69235 27.8842,-22.001361 41.9498,-16.659911 8.092,3.07295 13.0834,14.645481 11.6883,23.188121 -3.4719,21.26004 -11.8291,46.250896 -17.13,69.797086 -21.4707,95.3721 -90.7113,164.68983 -162.4379,208.45147 -14.3497,8.75497 -32.4614,18.90743 -50.3326,24.03496 -16.0409,4.60237 -33.0551,5.61844 -49.7431,5.66088 -19.1307,0.0487 -38.0141,-4.36227 -57.0565,-6.1994 -16.0779,-1.55113 -32.448,-7.24255 -48.2864,-4.07182 -12.584,2.51924 -23.3075,10.90887 -34.1628,17.7548 -8.6732,5.46981 -16.9422,11.65834 -24.5628,18.51902 -12.507,11.25979 -12.1793,37.5881 -22.6234,47.1147 -4.8285,4.4044 -11.3183,6.75262 -17.5324,8.77714 -7.748,2.52425 -16.1164,2.45773 -24.1114,4.03359 -13.0632,2.57483 -38.9505,8.85197 -38.9505,8.85197"
   id="path4"
   style="stroke:#fbf324;stroke-width:11;stroke-dasharray:none;stroke-opacity:1"
   sodipodi:nodetypes="cssasssaaaaassaac" />
</svg>
