<?xml version="1.0" encoding="UTF-8" standalone="no"?>
<!-- Generator: Adobe Illustrator 25.2.3, SVG Export Plug-In . SVG Version: 6.00 Build 0)  -->

<svg
   version="1.1"
   id="Layer_1"
   x="0px"
   y="0px"
   viewBox="0 0 995.61434 646.45824"
   xml:space="preserve"
   sodipodi:docname="02 - bahrain.svg"
   inkscape:version="1.3.2 (091e20e, 2023-11-25, custom)"
   width="995.61438"
   height="646.45825"
   xmlns:inkscape="http://www.inkscape.org/namespaces/inkscape"
   xmlns:sodipodi="http://sodipodi.sourceforge.net/DTD/sodipodi-0.dtd"
   xmlns="http://www.w3.org/2000/svg"
   xmlns:svg="http://www.w3.org/2000/svg"><defs
   id="defs4" /><sodipodi:namedview
   id="namedview4"
   pagecolor="#505050"
   bordercolor="#eeeeee"
   borderopacity="1"
   inkscape:showpageshadow="0"
   inkscape:pageopacity="0"
   inkscape:pagecheckerboard="0"
   inkscape:deskcolor="#494949"
   inkscape:zoom="0.50000001"
   inkscape:cx="124"
   inkscape:cy="980.99997"
   inkscape:window-width="2560"
   inkscape:window-height="1494"
   inkscape:window-x="3829"
   inkscape:window-y="198"
   inkscape:window-maximized="1"
   inkscape:current-layer="Layer_1" />
<style
   type="text/css"
   id="style1">
	.st0{fill:none;stroke:#374151;stroke-width:10;stroke-miterlimit:3.3231;}
	.st1{fill:none;stroke:#EF4444;stroke-width:2;stroke-miterlimit:3.3231;}
	.st2{fill:none;stroke:#3B82F6;stroke-width:2;stroke-miterlimit:3.3231;}
	.st3{fill:none;stroke:#FBBF24;stroke-width:2;stroke-miterlimit:3.3231;}
</style>



<path
   vector-effect="non-scaling-stroke"
   class="st1"
   d="m 620.22545,640.81446 c -193.95247,-0.37133 -600.750734,-2.05164 -600.750734,-2.05164 0,0 -4.762799,-0.0743 -7.533655,-0.58129 -2.7708569,-0.507 -4.2372713,-1.44671 -5.5195021,-3.17756 -1.056959,-1.42676 -1.483244,-4.13055 -1.368968,-6.01997 0.114276,-1.88941 0.9392823,-4.60846 2.061898,-6.63372 2.7067805,-4.88319 7.2709301,-8.47489 10.9297991,-12.6921 9.550449,-11.00785 28.773133,-32.9175 28.773133,-32.9175 0,0 2.561274,-2.81595 3.861042,-5.31352 1.299768,-2.49758 1.33803,-4.67679 1.463577,-5.87821 0.125548,-1.20142 -1.115961,-6.41509 -1.123325,-7.62412 -0.0074,-1.20903 -16.558339,-42.3179 -22.423849,-64.2203 -1.608902,-6.0078 -3.103946,-12.12351 -3.475964,-18.33188 -0.513887,-8.57593 0.784271,-17.1773 1.743248,-25.71493 4.161488,-37.04912 13.996344,-88.69519 17.379735,-110.48774 9.66135,-72.26194 43.278773,-296.900454 43.278773,-296.900454 0,0 1.145913,-15.40327 4.171562,-22.352736 1.980485,-4.548881 4.274301,-9.590157 8.84984,-11.9671279 3.86646,-2.0086103 6.97292,-2.9579512 11.51747,-2.9437878 4.54455,0.014163 11.1459,0.019559 15.23961,1.5114128 12.89951,4.7009199 22.09401,17.5344169 29.98122,27.5388029 7.88721,10.004387 14.46712,17.179663 22.13746,26.564143 20.45422,25.025277 63.66165,65.419657 63.66165,65.419657"
   id="path2"
   style="stroke:#ef4444;stroke-width:10;stroke-dasharray:none;stroke-opacity:1"
   sodipodi:nodetypes="ccsssaacsssaaaccasssssc" /><path
   vector-effect="non-scaling-stroke"
   class="st2"
   d="m 243.07947,126.03989 c 0,0 16.35796,14.67722 25.85245,20.03662 11.39741,6.43354 24.84403,8.4476 36.6285,14.14124 6.68522,3.22996 14.23181,5.77444 19.19876,11.29298 7.71382,8.57045 12.71955,19.95615 14.31324,31.49178 0.4299,8.73943 -0.41366,19.04151 -1.83397,31.29774 -1.4203,12.25623 -3.41735,26.4666 -1.29441,35.02263 1.94856,9.59085 7.72482,17.80953 13.18517,24.63793 5.46035,6.82841 20.28971,17.29629 20.28971,17.29629 l 92.3876,67.87862 c 0,0 15.69491,11.17362 22.82207,17.62175 1.69114,1.53001 3.72913,2.90777 4.70081,4.97095 1.08712,2.30828 1.09342,5.05003 0.9378,7.59675 -0.10013,1.63869 -0.45867,3.31048 -1.19408,4.7783 -1.14773,2.2908 -2.82371,4.39889 -4.85746,5.95739 -3.32404,2.54726 -7.40721,4.10473 -11.46657,5.13398 -4.58976,1.16373 -9.41238,1.25145 -14.16435,1.07377 -4.75197,-0.17768 -9.52117,-1.17176 -14.29655,-1.6136 -59.7173,-5.27248 -118.44804,-11.55997 -177.61557,-20.77007 -13.85699,-2.10318 -39.74571,-7.88639 -59.37474,-4.87781 -9.24099,1.41639 -18.34359,5.17195 -25.98159,10.56298 -9.86194,6.96072 -16.38726,17.7443 -24.08738,27.04042 -3.56507,4.30401 -7.13511,8.63064 -10.22443,13.28793 -2.51208,3.78708 -7.04315,6.77646 -6.72143,11.8615 0.0653,1.0319 0.45439,2.13359 1.23284,2.92064 0.77846,0.78705 1.66296,1.51101 2.68506,1.91664 4.28714,1.70137 9.13069,1.32043 13.71009,1.87119 14.91444,1.79376 29.82668,3.27031 44.76005,4.94786 14.93338,1.67755 29.88789,3.55609 44.88686,4.38605 20.54581,1.13689 41.18978,0.82789 61.8641,1.22053 166.2189,3.15686 -56.09813,-2.13794 379.41196,0 0,0 22.98895,3.31655 33.03222,-1.25744 6.97039,-3.17451 12.90093,-9.37453 16.21629,-16.27904 4.60246,-9.58498 4.22636,-21.08695 3.56053,-31.69879 -0.74005,-11.79482 -3.77632,-23.55616 -8.33032,-34.46151 -4.80164,-11.49837 -12.40801,-22.33305 -19.66583,-31.79102 -10.38491,-13.533 -27.85888,-25.07641 -52.62811,-35.39815 -7.84031,-3.26717 -15.92503,-4.87639 -24.02367,-7.5755 -13.35912,-4.45231 -40.4446,-14.42727 -54.21549,-26.17448 -9.35215,-7.97782 -17.62547,-21.00682 -23.63525,-31.49162 -9.17034,-15.99875 -11.91698,-35.71983 -11.32194,-54.15082 0.34251,-10.609 8.51393,-30.68433 8.51393,-30.68433"
   id="path3"
   sodipodi:nodetypes="caaacscsccaaaaaasasaaaassasssscaaaasssssac"
   style="fill:none;fill-opacity:1;stroke-width:10;stroke-dasharray:none" /><path
   vector-effect="non-scaling-stroke"
   class="st3"
   d="m 556.33637,178.06017 c 0,0 21.17816,-50.44334 32.40229,-75.38566 1.68959,-3.754612 2.9651,-7.757131 5.2585,-11.176499 6.06454,-9.042003 13.07628,-17.940721 22.06776,-24.079919 8.28085,-5.653997 18.06283,-11.698661 28.05422,-10.854623 9.775,0.825758 18.01437,8.478059 25.2762,15.073387 5.72173,5.196578 9.41851,12.270799 13.73316,18.683789 7.86721,11.693265 14.76748,24.008845 22.12171,36.031355 33.09373,54.10078 82.50552,135.19287 99.01535,162.46466 41.67328,67.63422 77.23257,126.80997 119.11052,194.53424 11.55509,19.15542 22.01891,38.46637 34.05865,57.29759 4.24167,6.84987 18.69601,34.04024 25.24105,44.28151 5.85295,7.32577 9.68409,15.10141 7.11053,22.55135 -3.48967,10.10188 -17.16778,12.82791 -26.46029,18.10759 -9.17289,5.21172 -18.64888,10.16407 -28.72614,13.287 -3.48528,1.08008 -7.16662,1.42129 -10.79267,1.82812 -4.48944,0.5037 -13.53184,0.75405 -13.53184,0.75405 l -290.04992,-0.64365"
   id="path4"
   sodipodi:nodetypes="caaaaaaacccsaaaacc"
   style="stroke:#fafb24;stroke-width:10;stroke-dasharray:none;stroke-opacity:1" />
</svg>
