<?xml version="1.0" encoding="UTF-8" standalone="no"?>
<!-- Generator: Adobe Illustrator 25.2.3, SVG Export Plug-In . SVG Version: 6.00 Build 0)  -->

<svg
   version="1.1"
   id="Layer_1"
   x="0px"
   y="0px"
   viewBox="0 0 1551.2821 764.2603"
   xml:space="preserve"
   sodipodi:docname="04 - australia.svg"
   width="1551.2821"
   height="764.26031"
   inkscape:version="1.3.2 (091e20e, 2023-11-25, custom)"
   xmlns:inkscape="http://www.inkscape.org/namespaces/inkscape"
   xmlns:sodipodi="http://sodipodi.sourceforge.net/DTD/sodipodi-0.dtd"
   xmlns="http://www.w3.org/2000/svg"
   xmlns:svg="http://www.w3.org/2000/svg"><defs
   id="defs4" /><sodipodi:namedview
   id="namedview4"
   pagecolor="#505050"
   bordercolor="#eeeeee"
   borderopacity="1"
   inkscape:showpageshadow="0"
   inkscape:pageopacity="0"
   inkscape:pagecheckerboard="0"
   inkscape:deskcolor="#494949"
   inkscape:zoom="0.94967107"
   inkscape:cx="554.40249"
   inkscape:cy="636.53619"
   inkscape:window-width="2560"
   inkscape:window-height="1494"
   inkscape:window-x="3829"
   inkscape:window-y="198"
   inkscape:window-maximized="1"
   inkscape:current-layer="Layer_1" />
<style
   type="text/css"
   id="style1">
	.st0{fill:none;stroke:#374151;stroke-width:10.0;stroke-miterlimit:2.16;}
	.st1{fill:none;stroke:#EF4444;stroke-width:2.0;stroke-miterlimit:2.16;}
	.st2{fill:none;stroke:#3B82F6;stroke-width:2.0;stroke-miterlimit:2.16;}
	.st3{fill:none;stroke:#FBBF24;stroke-width:2.0;stroke-miterlimit:2.16;}
</style>



<path
   vector-effect="non-scaling-stroke"
   class="st1"
   d="m 860.75853,635.4319 c 0,0 -123.65174,6.69537 -185.46694,4.83169 -7.47511,-0.22537 -16.37711,2.56332 -22.35197,-1.93436 -3.81793,-2.87402 -3.15787,-9.03477 -5.1385,-13.38375 -2.35701,-5.17541 -4.38881,-10.67578 -8.001,-15.0681 -8.01645,-9.74776 -17.57463,-19.42287 -29.38241,-23.87915 -19.06352,-7.19461 -32.49793,-6.1704 -61.0807,-2.4024 -60.85357,2.89182 -122.61306,0.38288 -182.41192,-12.69363 -14.17608,-2.94092 -26.40916,-5.87405 -40.28964,-9.80119 -5.31677,-1.73046 -19.72525,-3.46291 -28.00872,-8.64495 -2.85893,-1.78851 -6.48823,-4.0421 -6.91176,-7.38768 -1.42344,-11.2442 13.78355,-26.85144 21.11846,-40.03707 3.68699,-6.62794 8.76199,-12.56 11.50098,-19.63258 1.1978,-3.09293 2.98824,-6.548 2.06496,-9.73367 -1.94295,-6.70389 -9.62637,-10.11403 -14.62517,-14.9853 -19.13586,-18.64767 -41.42137,-34.18396 -58.79253,-54.48567 -3.97534,-4.64599 -8.47919,-9.36476 -10.23825,-15.22089 -1.60277,-5.33584 -0.27558,-11.15783 0.14244,-16.71349 0.87204,-11.58975 4.0177,-21.13491 4.92352,-34.51816 0.90585,-13.38326 4.46393,-32.55838 5.66822,-38.20016 3.26593,-14.70225 10.57071,-31.32087 18.40961,-48.07778 7.83891,-16.75691 15.9782,-37.83825 15.9782,-37.83825"
   id="path2"
   style="stroke:#ef4444;stroke-width:10;stroke-dasharray:none;stroke-opacity:1"
   sodipodi:nodetypes="caaaaacccasaaaaaaascsc" /><path
   vector-effect="non-scaling-stroke"
   class="st2"
   d="m 287.86541,215.62536 c 0,0 2.16788,-6.70831 3.14593,-14.72294 0.97805,-8.01463 2.76626,-21.33557 6.00692,-26.56084 1.00119,-1.61433 2.65099,-3.67548 4.35287,-4.61934 1.70188,-0.94386 8.89956,-0.88566 13.34512,-1.36841 3.63604,-0.39485 7.31244,-0.54266 10.90085,-1.2498 6.41296,-1.26376 12.91693,-3.00731 18.87215,-5.32448 8.57165,-3.33521 15.71576,-9.58637 23.23313,-14.88599 9.64562,-6.8 17.45009,-16.38314 28.00641,-21.65969 14.93451,-7.46498 31.59972,-12.88306 48.29079,-13.30003 17.12157,-0.42773 29.60599,0.62775 50.15574,11.15259 14.71406,7.53601 30.54777,18.77911 47.92651,31.37788 17.37874,12.59877 34.09761,23.66773 47.09063,39.51195 14.59803,17.80143 22.95711,39.94559 33.17238,60.57667 7.60478,15.35885 12.95236,31.79118 20.8946,46.97827 5.84917,11.18473 15.34055,26.89307 19.63653,32.37602 23.63825,33.52753 49.14027,46.30166 84.65106,64.32234 35.5108,18.02068 107.47468,9.02822 107.47468,9.02822"
   id="path3"
   sodipodi:nodetypes="csssaasaaassaaacsc"
   style="stroke:#3bbaf6;stroke-width:10;stroke-dasharray:none;stroke-opacity:1" /><path
   vector-effect="non-scaling-stroke"
   class="st3"
   d="m 855.02171,407.25778 c 0,0 10.25924,-1.83466 22.92264,-2.44502 12.6634,-0.61035 29.40626,-1.29943 38.27829,-5.8914 10.42404,-5.39526 14.62611,-15.83605 21.51808,-24.11697 7.02285,-8.43816 10.33581,-20.2868 20.18547,-26.0241 6.78477,-3.95204 14.66595,-4.42326 22.47105,-4.77722 7.8051,-0.35395 16.09256,-1.89366 24.80676,-2.5887 17.4284,-1.3901 35.0375,-3.90326 47.8038,-4.05671 26.5317,-1.00116 41.5446,-6.19079 67.7204,-1.53923 11.8478,2.52193 35.2693,11.48269 46.4092,15.95124 11.1398,4.46854 21.998,11.70029 32.7192,17.275 10.7211,5.57472 23.3053,11.49241 33.8971,17.33286 41.4982,22.88281 36.6172,18.72237 54.4909,28.87598 7.0029,3.97817 14.5936,7.23594 20.6498,12.54521 3.5701,3.12975 8.3407,6.38858 8.9248,11.10024 0.7975,6.43281 -5.0635,11.87069 -8.1156,17.67172 -5.117,9.72584 -9.0951,15.24689 -14.6058,24.75108 -5.5108,9.5042 -13.065,22.99152 -18.3561,32.64989 -10.5821,19.31673 -9.8303,24.89655 -18.2972,34.96307 -5.0789,6.03847 -11.3619,11.72372 -18.782,14.40703 -5.62,2.03233 -9.6785,1.88532 -17.9144,0.71074 -7.0879,-1.01085 -17.854,-4.33937 -25.822,-6.52654 -7.968,-2.18716 -15.9021,-3.89109 -22.8544,-5.60151 -2.7662,-0.56615 -10.2096,-2.20442 -18.8872,-4.49514 -8.6775,-2.29073 -18.5893,-5.23392 -26.2923,-5.77743 -4.2649,-0.30092 -9.6393,-1.83866 -12.7828,1.05941 -2.1723,2.00271 -1.4275,5.83994 -1.4462,8.74507 -0.4055,9.66215 1.3553,20.5368 2.3187,28.91915 0.9634,8.38234 2.4357,17.35567 -0.1651,24.46503 -1.8594,5.08277 -3.7904,10.90667 -7.5841,15.04975 -3.8009,4.15095 -9.0477,7.01299 -14.3523,8.89415 -4.4727,1.58616 -9.3878,1.47942 -14.1226,1.80051 -7.061,0.47884 17.8921,-0.25719 -21.231,0.18292 -39.1231,0.4401 -171.66908,4.29373 -197.76827,4.66404"
   id="path4"
   sodipodi:nodetypes="cssasssccsssaaasssaacscssasssaaasc"
   style="stroke:#fffe20;stroke-width:10;stroke-dasharray:none;stroke-opacity:0.52818" />
</svg>
