<?xml version="1.0" encoding="UTF-8" standalone="no"?>
<!-- Generator: Adobe Illustrator 25.2.3, SVG Export Plug-In . SVG Version: 6.00 Build 0)  -->

<svg
   version="1.1"
   id="Layer_1"
   x="0px"
   y="0px"
   viewBox="0 0 1604.9234 872.66189"
   xml:space="preserve"
   sodipodi:docname="05 - japan.svg"
   width="1604.9233"
   height="872.66187"
   inkscape:version="1.3.2 (091e20e, 2023-11-25, custom)"
   xmlns:inkscape="http://www.inkscape.org/namespaces/inkscape"
   xmlns:sodipodi="http://sodipodi.sourceforge.net/DTD/sodipodi-0.dtd"
   xmlns="http://www.w3.org/2000/svg"
   xmlns:svg="http://www.w3.org/2000/svg"><defs
   id="defs4" /><sodipodi:namedview
   id="namedview4"
   pagecolor="#505050"
   bordercolor="#eeeeee"
   borderopacity="1"
   inkscape:showpageshadow="0"
   inkscape:pageopacity="0"
   inkscape:pagecheckerboard="0"
   inkscape:deskcolor="#d1d1d1"
   inkscape:zoom="11.313708"
   inkscape:cx="521.84481"
   inkscape:cy="359.16605"
   inkscape:window-width="2560"
   inkscape:window-height="1494"
   inkscape:window-x="3829"
   inkscape:window-y="198"
   inkscape:window-maximized="1"
   inkscape:current-layer="Layer_1" />
<style
   type="text/css"
   id="style1">
	.st0{fill:none;stroke:#374151;stroke-width:10;stroke-miterlimit:3.3231;}
	.st1{fill:none;stroke:#EF4444;stroke-width:2;stroke-miterlimit:3.3231;}
	.st2{fill:none;stroke:#3B82F6;stroke-width:2;stroke-miterlimit:3.3231;}
	.st3{fill:none;stroke:#FBBF24;stroke-width:2;stroke-miterlimit:3.3231;}
</style>

<path
   vector-effect="non-scaling-stroke"
   class="st1"
   d="m 1222.6109,291.46531 c 0,0 226.0575,277.49991 339.9797,415.51562 7.21,8.73484 15.6998,16.5317 21.7427,26.1111 5.5691,8.82836 9.8617,18.1537 13.0878,28.44827 3.4163,10.90163 2.7412,22.90837 1.3429,34.24687 -1.7121,13.88356 -6.7078,29.25312 -11.7828,40.27812 -15.2,29 -41.8212,40.39105 -69.5212,24.29105 -39.8584,-28.13537 -48.0449,-76.65619 -84.9767,-123.11556 -5.9822,-7.52538 -11.6758,-16.21743 -20.2796,-20.50594 -13.6362,-6.79687 -30.3506,-3.15714 -45.3,-6.1 -12.0852,-2.37903 -27.5818,-4.69009 -35.7575,-9.31676 -8.1756,-4.62667 -13.5975,-12.29268 -19.2353,-19.55277 -13.4448,-17.31354 -12.6683,-41.97528 -19.475,-62.8125 -2.5672,-7.85888 -4.0533,-16.2239 -8.0562,-23.45781 -2.9949,-5.41243 -7.0403,-10.32593 -11.6688,-14.42969 -4.5872,-4.06711 -10.0684,-7.09015 -15.5828,-9.76875 -6.4439,-3.1301 -13.2259,-5.74999 -20.2297,-7.25625 -5.941,-1.2777 -12.1105,-1.03233 -18.1734,-1.44375 -13.7948,-0.93609 -35.8141,-0.10625 -41.4141,-2.33125 -9.275,-2.35 -32.8413,-16.23634 -42.165,-30.97454 -6.8562,-10.83777 -7.9631,-24.96701 -7.2999,-37.77423 0.4683,-9.04404 5.3163,-17.31487 7.8825,-25.99985 2.5212,-8.53285 5.1674,-17.03397 7.3824,-25.65138 2.7371,-10.64873 6.4957,-21.2023 7.2932,-32.16821 0.7648,-10.51625 1.729,-21.76489 -2.4573,-31.53648 -5.9451,-13.87736 -14.9452,-21.23066 -25.1984,-28.83281 -19.3307,-14.33253 -42.3667,-24.26306 -65.8172,-29.66406 -24.3793,-5.61491 -48.9703,-8.29844 -75.0203,-2.19844 -29.8,7.7 -54.225,18.25 -77.3375,36.9625 -11.55625,9.35625 -22.78437,22.25313 -33.19219,33.85469 -10.40781,11.60156 -19.99531,21.90781 -28.27031,34.08281"
   id="path2"
   style="stroke:#ef445e;stroke-width:10;stroke-dasharray:none;stroke-opacity:1"
   sodipodi:nodetypes="caasaccaaassaaaaaacaaaaasaacssc" />
<path
   vector-effect="non-scaling-stroke"
   class="st2"
   d="m 843.1109,420.36531 c -10.1,14.1 -21.33596,28.99426 -34.07485,41.60695 -4.04699,4.0069 -8.1696,8.27359 -13.32515,10.69305 -4.40741,2.06836 -9.49955,2.17573 -14.31085,2.92056 -12.46384,1.9295 -29.27546,3.52666 -37.62509,3.998 -25.28638,1.42801 -60.82351,8.45445 -75.97187,1.1125 -9.00469,-5.69356 -9.71719,-32.55606 -12.69219,-45.93106 -9.7304,-64.70155 -29.71434,-128.03744 -37.0875,-192.9375 -1.9375,-18.0125 -1.4625,-23.9125 9.9875,-46.9625 2.15,-7.8 8.11847,-20.95414 15.7402,-34.8937 7.62174,-13.93957 12.23509,-22.23868 9.6598,-33.6063 -1.081,-4.77166 -5.21146,-9.12598 -9.73843,-10.98174 -4.965,-2.03533 -11.30675,-1.40532 -16.06157,1.08174 -8.77087,4.58769 -12.59996,14.16375 -18.53747,23.19781 -24.46521,37.22441 -33.37034,63.78009 -58.20003,89.12719 -18.06625,18.44272 -37.6125,34.725 -63.9625,43.675 -86.5,24.3 -199,-12.2 -262.2,-77.3 -26.5,-28.2 -37.7,-61.4 -52.6,-96.9 -8.1,-20.55 -15.65,-44.125 -25.725,-62.4 -10.075,-18.275 -24.675,-31.2500003 -50.875001,-30.6000003 -28.15,-1.8 -64.25,5.6500003 -79.3375,22.3250003 -15.0875005,16.675 -15.1625005,42.575 0.7375,69.675 14,22.9 35.7,39.2 57,54.8 26.900001,18.7 49.500001,43.7 77.900001,60 111.7,62.1 228.6,101.5 349.2,141.4"
   id="path3"
   sodipodi:nodetypes="caaasscscsaaasacccscscccc"
   style="stroke-width:10;stroke-dasharray:none" />
<path
   vector-effect="non-scaling-stroke"
   class="st3"
   d="m 501.0109,353.46531 c 0,0 124.27176,52.88646 185.09713,64.1 10.82614,1.99587 23.20278,-2.90162 34.46853,-5.8934 14.04904,-3.73092 27.83224,-8.71845 40.9671,-14.94507 17.00568,-8.06158 32.72791,-17.30994 48.55436,-28.81173 24.82862,-18.04407 55.627,-48.3977 83.06465,-73.80758 27.43765,-25.40988 53.51456,-45.87602 56.90025,-48.17379 6.77137,-4.59555 11.63348,-10.91313 20.29642,-10.96374 6.59527,-0.0385 11.55336,6.43104 16.88906,10.30781 5.7703,4.19251 9.1363,13.34765 16.2453,13.92656 13.2648,1.08019 22.0761,-15.07053 34.1172,-20.73906 8.7948,-4.14026 17.7194,-10.62596 26.8711,-14.22222 9.1517,-3.59627 18.5305,-4.30309 28.2336,-4.88559 15.6312,-0.93838 31.1616,4.70116 45.9078,9.97031 14.6831,5.24659 28.9615,12.22923 41.6516,21.28906 15.9599,11.39422 27.5609,23.72344 42.3359,40.84844"
   id="path4"
   style="stroke-width:10;stroke-dasharray:none"
   sodipodi:nodetypes="csaassssaasssaac" />
</svg>
