<?xml version="1.0" encoding="UTF-8" standalone="no"?>
<!-- Generator: Adobe Illustrator 25.2.3, SVG Export Plug-In . SVG Version: 6.00 Build 0)  -->

<svg
   version="1.1"
   id="Layer_1"
   x="0px"
   y="0px"
   viewBox="0 0 1086.8055 702.24758"
   xml:space="preserve"
   sodipodi:docname="06 - china.svg"
   inkscape:version="1.3.2 (091e20e, 2023-11-25, custom)"
   width="1086.8055"
   height="702.24756"
   xmlns:inkscape="http://www.inkscape.org/namespaces/inkscape"
   xmlns:sodipodi="http://sodipodi.sourceforge.net/DTD/sodipodi-0.dtd"
   xmlns="http://www.w3.org/2000/svg"
   xmlns:svg="http://www.w3.org/2000/svg"><defs
   id="defs4" /><sodipodi:namedview
   id="namedview4"
   pagecolor="#505050"
   bordercolor="#eeeeee"
   borderopacity="1"
   inkscape:showpageshadow="0"
   inkscape:pageopacity="0"
   inkscape:pagecheckerboard="0"
   inkscape:deskcolor="#686868"
   showgrid="false"
   inkscape:zoom="0.72688491"
   inkscape:cx="947.19259"
   inkscape:cy="589.50185"
   inkscape:window-width="2560"
   inkscape:window-height="1494"
   inkscape:window-x="3829"
   inkscape:window-y="198"
   inkscape:window-maximized="1"
   inkscape:current-layer="Layer_1"><inkscape:grid
     id="grid4"
     units="px"
     originx="32.458587"
     originy="-132.43418"
     spacingx="0.99999995"
     spacingy="1"
     empcolor="#0099e5"
     empopacity="0.30196078"
     color="#0099e5"
     opacity="0.14902"
     empspacing="5"
     dotted="false"
     gridanglex="30"
     gridanglez="30"
     visible="false" /></sodipodi:namedview>
<style
   type="text/css"
   id="style1">
	.st0{fill:none;stroke:#374151;stroke-width:10;stroke-miterlimit:3.3231;}
	.st1{fill:none;stroke:#EF4444;stroke-width:2;stroke-miterlimit:3.3231;}
	.st2{fill:none;stroke:#3B82F6;stroke-width:2;stroke-miterlimit:3.3231;}
	.st3{fill:none;stroke:#FBBF24;stroke-width:2;stroke-miterlimit:3.3231;}
</style>



<path
   vector-effect="non-scaling-stroke"
   class="st1"
   d="m 413.50101,317.28133 c 0,0 22.92719,-70.49458 56.65419,-158.37233 17.71614,-43.42903 25.89341,-70.159588 43.02384,-113.060758 17.92028,-33.92879 51.21296,-46.38327024 84.52863,-38.7109902 25.48029,5.4410102 49.67228,24.0475602 48.91398,52.2338102 1.13061,22.01277 -19.97546,51.663308 -41.6528,43.333078 -12.85211,-4.466918 -22.34398,-29.855038 -34.94813,-34.518228 -19.57876,-7.23491 -38.10867,9.92074 -32.3012,32.941468 1.39871,7.90672 5.68242,15.32423 11.74286,22.76515 6.06045,7.44092 13.4677,15.85107 20.25367,19.63468 20.81748,16.36757 52.87095,3.5426 125.22146,-3.17337 17.03164,-2.23921 45.09082,-5.80211 70.93731,-10.62801 25.8465,-4.8259 49.49927,-10.40248 65.66117,-9.34616 25.23802,1.64953 59.29285,13.58821 60.8659,13.48334"
   id="path2"
   style="stroke:#ef4444;stroke-width:10;stroke-dasharray:none;stroke-opacity:1"
   sodipodi:nodetypes="ccccccccsccssc" /><path
   vector-effect="non-scaling-stroke"
   class="st2"
   d="m 892.40189,133.86301 c 27.08981,5.53824 81.10671,19.38256 107.76761,26.67183 9.5569,1.83235 17.1807,3.82872 21.0648,6.80044 3.8841,2.97173 3.7302,16.01046 -1.374,20.65253 -41.82671,38.03973 -130.11809,23.13856 -169.19415,22.807 -56.58101,-7.86934 -131.30079,-14.69275 -158.72706,33.57547 -9.18526,16.16539 -21.97458,36.51834 -22.9271,55.43833 -0.95252,18.91999 7.93175,38.40702 14.09369,56.84056 6.69597,19.26107 24.70519,36.55724 34.01971,54.56976 9.31453,18.01253 13.93437,30.74142 9.85158,52.86795 -2.10894,12.90135 -15.5616,30.6332 -25.57171,40.06395 -10.01011,9.43076 -21.29019,10.90193 -32.91644,12.55499 -16.41465,2.33388 -32.9473,-1.12236 -49.57243,-4.06979 -16.62512,-2.94742 -31.91175,-5.05231 -43.38572,3.84354 -5.90038,4.5746 -9.98003,14.08235 -7.47266,21.11474 10.64841,29.86552 21.51754,66.72052 36.04945,68.48344 24.18217,2.93361 68.98007,1.15818 104.96177,3.27913 14.28582,0.84209 34.68155,-0.11267 48.71314,1.1823 47.52323,1.34239 95.1043,2.96164 142.63368,5.02512"
   id="path3"
   style="stroke-width:10;stroke-dasharray:none"
   sodipodi:nodetypes="ccsscsscscsasassscc" /><path
   vector-effect="non-scaling-stroke"
   class="st3"
   d="m 900.41605,615.5643 63.90281,0.84861 c 0,0 7.00664,0.23489 10.17663,-1.01961 2.77507,-1.09822 6.01081,-2.66971 7.10702,-5.44558 6.3119,-15.98318 -12.56563,-38.36633 -8.45618,-50.85482 2.7805,-13.83623 19.82607,-20.96219 35.03777,-21.98228 15.2117,-1.02009 28.5895,4.0657 40.0345,9.40443 22.1028,11.0586 28.739,26.06055 32.3985,43.00078 3.6594,16.94022 -1.6581,43.81873 -15.4628,62.63045 -23.7795,31.40566 -48.2693,39.29614 -85.78538,40.55886 -286.68261,2.88681 -574.15389,-1.35593 -861.06295,4.25094 -21.690348,-0.0925 -65.402681,0.20788 -65.402681,0.20788 1.155344,-1.15633 -23.854537,-0.0367 -41.372131,-1.01471 -3.4842502,-0.19452 -6.1838842,-4.72756 -6.5054922,-8.20238 -0.282931,-3.05695 2.293636,-6.46047 4.301544,-8.14379 4.8338262,-4.05241 9.0427252,-5.89518 13.8564312,-9.09 5.24764,-3.48281 28.899068,-14.41544 34.901261,-15.03083 78.146278,-8.01224 198.832238,-7.2138 227.895198,-10.86437 7.67225,-0.96371 9.70597,-5.4462 10.79541,-8.65646 23.41608,-69.0001 117.27274,-320.34615 117.27274,-320.34615"
   id="path4"
   style="stroke:#fbf124;stroke-width:10;stroke-dasharray:none;stroke-opacity:1"
   sodipodi:nodetypes="ccaacscsccccsasssssc" />
</svg>
