<?xml version="1.0" encoding="UTF-8" standalone="no"?>
<!-- Generator: Adobe Illustrator 25.2.3, SVG Export Plug-In . SVG Version: 6.00 Build 0)  -->

<svg
   version="1.1"
   id="Layer_1"
   x="0px"
   y="0px"
   viewBox="0 0 1590 1045"
   style="enable-background:new 0 0 1590 1045;"
   xml:space="preserve"
   sodipodi:docname="07 - Italy (enzo Ferrari).svg"
   inkscape:version="1.3.2 (091e20e, 2023-11-25, custom)"
   xmlns:inkscape="http://www.inkscape.org/namespaces/inkscape"
   xmlns:sodipodi="http://sodipodi.sourceforge.net/DTD/sodipodi-0.dtd"
   xmlns="http://www.w3.org/2000/svg"
   xmlns:svg="http://www.w3.org/2000/svg"><defs
   id="defs4" /><sodipodi:namedview
   id="namedview4"
   pagecolor="#505050"
   bordercolor="#eeeeee"
   borderopacity="1"
   inkscape:showpageshadow="0"
   inkscape:pageopacity="0"
   inkscape:pagecheckerboard="0"
   inkscape:deskcolor="#d1d1d1"
   inkscape:zoom="0.87894737"
   inkscape:cx="973.32335"
   inkscape:cy="487.51497"
   inkscape:window-width="2560"
   inkscape:window-height="1494"
   inkscape:window-x="3829"
   inkscape:window-y="198"
   inkscape:window-maximized="1"
   inkscape:current-layer="Layer_1" />
<style
   type="text/css"
   id="style1">
	.st0{fill:none;stroke:#374151;stroke-width:6.912;stroke-miterlimit:3.456;}
	.st1{fill:none;stroke:#EF4444;stroke-width:1.728;stroke-miterlimit:3.456;}
	.st2{fill:none;stroke:#3B82F6;stroke-width:1.728;stroke-miterlimit:3.456;}
	.st3{fill:none;stroke:#FBBF24;stroke-width:1.728;stroke-miterlimit:3.456;}
</style>




<path
   vector-effect="non-scaling-stroke"
   class="st1"
   d="m 1169.926,239.68503 c -37.184,1.29635 -129.6137,3.80372 -160.8296,5.41668 -31.21584,1.61296 -35.77238,-0.19153 -53.54619,-1.94983 -68.00596,-6.7276 -134.08411,-30.12378 -202.36854,-32.8271 -33.07563,-1.30943 -66.08795,4.3272 -98.97357,8.10187 -32.81003,3.76599 -65.74613,7.44683 -98.00948,14.50071 -29.86849,6.53029 -64.02355,15.71367 -88.05798,25.66584 -13.36449,5.53397 -7.66388,34.18229 -18.40954,47.21701 -22.47826,27.26663 -66.73289,29.71165 -89.6114,56.64331 -14.0123,16.49471 -17.45493,39.62387 -25.3624,59.77063 -8.46552,21.56859 -15.87587,43.5372 -23.62193,65.3745 -14.80284,41.73142 -29.14035,83.62646 -43.67364,125.45252 -8.04779,23.16112 -21.18691,45.15203 -24.10251,69.49753 -3.07092,25.64246 22.34381,59.19383 7.38378,77.12442 -15.08275,18.07769 -70.33292,65.49297 -70.33292,65.49297"
   id="path2"
   style="stroke:#f73434;stroke-width:10;stroke-dasharray:none;stroke-opacity:1"
   sodipodi:nodetypes="csaaaasaaaaaasc" /><path
   vector-effect="non-scaling-stroke"
   class="st2"
   d="m 180.41008,825.16609 c 0,0 -53.07888,41.54754 -67.74161,60.34301 -12.776309,16.37736 -9.61398,26.9619 -4.11303,37.06573 3.52335,6.47148 12.65228,10.03996 20.2162,11.49864 11.9632,2.30706 33.69627,-4.04507 50.49425,-6.43907 74.68497,-10.6439 148.27447,-30.41408 223.56036,-35.22787 15.39618,-0.98443 30.90527,-0.13398 46.26395,1.32281 19.89137,1.88673 39.40963,6.63078 59.17105,9.5825 16.33324,2.43966 32.57516,7.06563 49.08592,6.71673 8.47187,-0.17902 18.04115,0.30108 25.01852,-4.50735 19.20411,-13.23443 27.31567,-38.32939 36.10722,-59.93162 8.42981,-20.71334 14.76714,-42.95495 15.34525,-65.31048 0.55518,-21.46911 -6.89914,-42.41563 -11.47538,-63.39869 -3.69359,-16.93595 -9.07921,-33.46943 -12.88541,-50.38044 -4.75892,-21.14391 -15.72527,-42.39819 -12.43077,-63.81918 2.29164,-14.90031 13.34505,-27.11907 21.58652,-39.74242 7.28925,-11.16485 11.9296,-27.17429 24.50035,-31.61988 10.75155,-3.80224 32.99943,11.26439 44.48102,13.59156 5.15092,1.04403 10.50677,0.4319 15.76223,0.38677 35.35702,-0.30361 70.65391,-2.97871 105.98273,-4.42277 24.33473,-0.99467 73.00673,-3.45584 73.00673,-2.92163"
   id="path3"
   style="stroke:#3b83f6;stroke-width:10;stroke-dasharray:none;stroke-opacity:0.718494"
   sodipodi:nodetypes="csssaaaaaaaaaaaaaaaac" /><path
   vector-effect="non-scaling-stroke"
   class="st3"
   d="m 882.34618,537.95244 c 0,0 103.6793,-5.01671 149.11912,-6.39856 9.576,-0.29121 12.0835,29.25406 22.0637,24.59569 53.1765,-24.82057 102.9462,-44.7491 150.2022,-70.59206 40.9062,-22.37037 71.8698,-59.50632 105.8582,-91.42084 32.6534,-30.66097 57.6462,-71.53317 94.0506,-95.97671 39.2412,-26.3483 84.6856,-36.88794 122.3627,-62.84714 11.9349,-8.22305 -3.0586,-31.17689 -8.6701,-45.59345 -6.6381,-17.05412 -12.7763,-38.0296 -28.9054,-46.67599 -7.1493,-3.83254 -14.1174,-1.94857 -24.3227,0.78214 -31.1431,8.33327 -63.056,27.03011 -106.4257,43.11323 -40.3546,14.96495 -122.6276,51.08788 -121.1975,48.2276 l -66.8306,4.58368"
   id="path4"
   style="stroke:#fbe824;stroke-width:10;stroke-dasharray:none;stroke-opacity:1"
   sodipodi:nodetypes="csssassaasscc" /></svg>
