<?xml version="1.0" encoding="UTF-8" standalone="no"?>
<!-- Generator: Adobe Illustrator 25.2.3, SVG Export Plug-In . SVG Version: 6.00 Build 0)  -->

<svg
   version="1.1"
   id="Layer_1"
   x="0px"
   y="0px"
   viewBox="0 0 1542.0001 867"
   xml:space="preserve"
   sodipodi:docname="10 - canada.svg"
   width="1542"
   height="867"
   inkscape:version="1.3.2 (091e20e, 2023-11-25, custom)"
   xmlns:inkscape="http://www.inkscape.org/namespaces/inkscape"
   xmlns:sodipodi="http://sodipodi.sourceforge.net/DTD/sodipodi-0.dtd"
   xmlns="http://www.w3.org/2000/svg"
   xmlns:svg="http://www.w3.org/2000/svg"><defs
   id="defs4" /><sodipodi:namedview
   id="namedview4"
   pagecolor="#505050"
   bordercolor="#eeeeee"
   borderopacity="1"
   inkscape:showpageshadow="0"
   inkscape:pageopacity="0"
   inkscape:pagecheckerboard="0"
   inkscape:deskcolor="#d1d1d1"
   inkscape:zoom="0.63549665"
   inkscape:cx="915.03236"
   inkscape:cy="370.5763"
   inkscape:window-width="2560"
   inkscape:window-height="1494"
   inkscape:window-x="3829"
   inkscape:window-y="198"
   inkscape:window-maximized="1"
   inkscape:current-layer="Layer_1" />
<style
   type="text/css"
   id="style1">
	.st0{fill:none;stroke:#374151;stroke-width:4.2146;stroke-miterlimit:2.1073;}
	.st1{fill:none;stroke:#EF4444;stroke-width:1.0537;stroke-miterlimit:2.1073;}
	.st2{fill:none;stroke:#3B82F6;stroke-width:1.0537;stroke-miterlimit:2.1073;}
	.st3{fill:none;stroke:#FBBF24;stroke-width:1.0537;stroke-miterlimit:2.1073;}
</style>




<path
   vector-effect="non-scaling-stroke"
   class="st1"
   d="m 1238.402,334.34978 c 43.7678,7.41207 86.3102,29.6517 113.4842,43.96581 26.831,14.13343 33.8528,24.89437 60.8066,35.5685 5.0839,2.01329 11.4069,-4.13181 16.3767,-7.5011 5.134,-3.48052 8.4812,-9.14927 13.4614,-12.8464 4.1312,-3.067 8.3287,-6.95313 13.4325,-7.6051 5.1311,-0.65544 11.1156,0.58094 14.9925,4.00552 6.2294,5.50259 9.5177,14.80131 9.36,23.11144 -0.181,9.53703 -6.5495,18.09442 -11.7406,26.09689 -7.2728,11.21119 -17.3947,20.99393 -26.6802,29.92358 -9.2856,8.92965 -18.1498,16.44413 -24.1529,21.43266 -32.0996,24.44568 -68.6139,42.55274 -105.2077,59.21263 -11.4516,5.17041 -25.0082,14.29056 -37.991,11.65969 -9.927,-2.01162 -13.8884,-15.74386 -23.2866,-19.52069 -7.9217,-3.18345 -7.721,-7.02731 -25.5555,-1.70392 -18.0856,5.39836 -73.6314,14.69764 -90.1937,24.36086 -15.2686,8.90842 -18.8967,14.10184 -39.2264,21.85832 -7.7626,2.96172 -28.1902,5.92281 -41.7369,2.63497 -33.1832,-8.05368 -102.27446,-44.88107 -102.90842,-44.59931"
   id="path2"
   style="stroke:#ef5f44;stroke-width:14.1317;stroke-dasharray:none;stroke-opacity:1"
   sodipodi:nodetypes="cssaaaaaasccaassssc" /><path
   vector-effect="non-scaling-stroke"
   class="st2"
   d="m 951.63598,544.40413 c -23.13701,-7.37637 -27.16495,-14.18893 -39.29349,-8.4913 -16.30451,7.65941 -9.81102,38.16181 -24.93734,47.94434 -46.88901,30.32417 -112.61092,-8.95071 -165.11345,-24.74878 -46.71861,-17.9512 -88.74548,-37.56074 -128.5313,-61.64318 -19.89291,-12.0412 -39.22557,-25.20064 -58.30432,-39.83011 -19.07872,-14.62948 -37.90354,-30.72899 -56.78079,-48.65036 -9.89494,-6.58283 -24.22814,-20.54493 -30.56371,-25.85727 -10.42864,-8.74435 9.54318,-17.5598 4.58544,-41.35839 -1.48184,-7.11325 -5.69584,-14.50688 -10.52743,-20.46578 -10.73247,-13.2366 -30.28371,-28.7542 -53.69892,-47.20558 -23.41521,-18.45138 -50.6944,-39.83655 -76.88279,-57.43396 -26.18839,-17.59739 -48.45963,-30.42428 -67.51166,-41.09893 -19.05203,-10.67466 -36.89096,-16.88025 -36.89096,-16.88025"
   id="path3"
   style="stroke:#3bbff6;stroke-width:14.1317;stroke-dasharray:none;stroke-opacity:1"
   sodipodi:nodetypes="cascsscssssssc" /><path
   vector-effect="non-scaling-stroke"
   class="st3"
   d="m 207.12923,158.81431 c -14.24548,-7.2351 -51.21094,-17.1579 -51.21094,-17.1579 l -51.90114,-10.88777 c 0,0 -9.207788,-2.28462 -16.841568,-3.60306 -7.63378,-1.31842 -13.69357,-1.67065 -18.70293,-5.2197 -10.85318,-7.30457 -8.44866,-21.77479 5.19766,-24.501102 22.16182,-2.127039 48.548148,13.216222 69.465058,18.248262 26.10929,6.19716 47.2328,0.56439 73.76415,1.86398 31.90522,0.61891 66.17721,3.48996 100.94635,5.12788 34.76914,1.63791 73.41773,3.15455 107.31159,7.73582 54.21739,7.32829 98.61238,21.86694 157.09498,33.32821 83.62379,15.95295 170.31269,39.26532 253.69163,56.49795 17.83865,4.31822 36.47943,7.13568 54.3741,11.32417 6.3615,1.13132 15.75087,2.13216 23.40763,4.1805 7.46055,1.99584 16.906,1.88052 21.79512,7.85879 2.54033,3.10625 1.00006,7.9685 1.75475,11.90963 0.60491,3.15891 0.26425,6.8365 2.21963,9.39015 2.36199,3.08466 6.48971,4.57387 10.25117,5.5463 16.37355,4.23299 50.18991,11.34305 50.18991,11.34305 l 238.46562,52.55031"
   id="path4"
   style="stroke:#fbf424;stroke-width:14.1317;stroke-dasharray:none;stroke-opacity:1"
   sodipodi:nodetypes="cccsccccsscccaaaascc" /></svg>
