<?xml version="1.0" encoding="UTF-8" standalone="no"?>
<!-- Generator: Adobe Illustrator 25.2.3, SVG Export Plug-In . SVG Version: 6.00 Build 0)  -->

<svg
   version="1.1"
   id="Layer_1"
   x="0px"
   y="0px"
   viewBox="0 0 1244.1861 699.55212"
   xml:space="preserve"
   sodipodi:docname="09 - monaco.svg"
   width="1244.186"
   height="699.55212"
   inkscape:version="1.3.2 (091e20e, 2023-11-25, custom)"
   xmlns:inkscape="http://www.inkscape.org/namespaces/inkscape"
   xmlns:sodipodi="http://sodipodi.sourceforge.net/DTD/sodipodi-0.dtd"
   xmlns="http://www.w3.org/2000/svg"
   xmlns:svg="http://www.w3.org/2000/svg"><defs
   id="defs4" /><sodipodi:namedview
   id="namedview4"
   pagecolor="#505050"
   bordercolor="#eeeeee"
   borderopacity="1"
   inkscape:showpageshadow="0"
   inkscape:pageopacity="0"
   inkscape:pagecheckerboard="0"
   inkscape:deskcolor="#d1d1d1"
   inkscape:zoom="1.3551958"
   inkscape:cx="643.44946"
   inkscape:cy="909.46269"
   inkscape:window-width="2560"
   inkscape:window-height="1494"
   inkscape:window-x="3829"
   inkscape:window-y="198"
   inkscape:window-maximized="1"
   inkscape:current-layer="Layer_1" />
<style
   type="text/css"
   id="style1">
	.st0{fill:none;stroke:#374151;stroke-width:7.8545;stroke-miterlimit:3.9273;}
	.st1{fill:none;stroke:#EF4444;stroke-width:1.9636;stroke-miterlimit:3.9273;}
	.st2{fill:none;stroke:#3B82F6;stroke-width:1.9636;stroke-miterlimit:3.9273;}
	.st3{fill:none;stroke:#FBBF24;stroke-width:1.9636;stroke-miterlimit:3.9273;}
</style>



<path
   vector-effect="non-scaling-stroke"
   class="st1"
   d="m 172.02911,303.55799 c 29.52599,-37.83733 83.22804,-112.52982 143.45754,-138.51587 8.52759,-3.67923 16.78086,-8.01974 24.77707,-12.74386 10.4994,-6.20299 18.16038,-20.5108 30.3549,-20.42082 7.08094,0.0522 11.67757,8.0139 17.44916,12.11648 27.43239,19.49956 67.26654,50.92003 81.64852,59.40066 39.99895,28.08175 80.7848,51.83069 120.69994,80.40537 24.78923,14.80452 58.47956,20.23934 83.48648,34.83743 37.74491,17.30379 46.40085,39.43867 93.21293,62.18352 18.61563,8.87585 41.06888,10.9963 60.18904,3.76913 19.12017,-7.22718 34.90726,-23.80198 40.19059,-44.31664 10.21005,-18.00934 -5.15855,-59.10295 10.29203,-73.43764 16.11587,-14.95193 59.58554,-17.63472 99.02625,-22.57952 39.44074,-4.94479 74.85244,-12.15161 74.85244,-12.15161"
   id="path2"
   style="stroke:#ef4444;stroke-width:10;stroke-dasharray:none;stroke-opacity:1"
   sodipodi:nodetypes="csaaaccccscssc" /><path
   vector-effect="non-scaling-stroke"
   class="st2"
   d="m 1051.666,232.10462 c 0.1344,0.10489 24.6242,-2.7556 33.9445,-3.40312 7.4488,-0.5175 14.9019,7.29652 17.1425,14.41923 2.3014,7.31609 -1.4261,17.6935 -5.9581,22.22378 -5.6499,5.64781 -10.1238,10.99443 -13.5897,17.65775 -2.9386,6.78342 -3.7394,24.57162 -7.9567,38.56268 -2.1087,6.99552 -11.3793,16.06114 -7.5825,23.28848 2.4462,4.65652 10.04,5.8286 15.1272,4.49132 3.2444,-0.85286 5.7347,-4.12831 6.9918,-7.23849 2.2353,-5.5301 -0.4109,-13.01884 0,-17.89427 1.8684,-22.00667 3.686,-33.09643 8.9016,-38.54966 5.2156,-5.45323 13.8292,-5.26994 24.9792,-0.30313 8.4338,3.75689 18.3337,9.28215 26.4583,12.32704 26.4865,14.7294 34.3659,22.24242 22.9699,34.14948 -12.769,13.34166 -36.4455,34.16193 -55.8982,49.78923 -22.793,18.31073 -45.6717,36.92654 -71.0842,51.38347 -25.0624,14.2577 -51.45183,27.20564 -79.38263,34.36622 -22.23633,5.70071 -45.73312,8.78599 -68.56637,6.42062 -17.8433,-1.84843 -30.645,-6.92609 -51.41562,-15.89446 -43.46154,-14.87529 -103.6145,-29.44787 -142.35102,-54.45451 -28.32875,-14.95562 -55.83176,-36.09131 -87.86945,-60.9399 -3.18143,-2.46753 -5.99844,-4.60769 -10.13672,-4.06295 -4.13828,0.54474 -10.2564,13.0317 -14.01578,11.59042 -10.43007,-3.99873 -15.02992,-7.24611 -19.35573,-13.91056 -2.63434,-4.05852 -0.43587,-10.07387 -2.93817,-14.2151 -3.40377,-5.63313 -10.13001,-8.40641 -15.25885,-12.53107 -48.42668,-38.94519 -98.59813,-78.46871 -146.47019,-115.34004 -4.36943,-3.36536 -9.24028,-6.60473 -14.64621,-7.69717 -3.7471,-0.75721 -7.68659,0.18524 -11.42706,0.97456 -11.98814,2.52978 -34.76287,11.94075 -34.76287,11.94075"
   id="path3"
   style="stroke:#3b6ef6;stroke-width:10;stroke-dasharray:none;stroke-opacity:1"
   sodipodi:nodetypes="csascsaaassscsaaaaccsssaaasaac" /><path
   vector-effect="non-scaling-stroke"
   class="st3"
   d="m 347.51793,199.25522 c -28.60174,12.45203 -62.72971,31.45265 -80.35919,66.31487 -5.64655,11.16601 2.14074,23.96639 -0.41956,35.52727 -0.67436,3.04504 -2.51111,5.73776 -4.19228,8.36468 -20.77868,32.46784 -38.51652,55.57515 -67.65041,93.59161 -1.31562,1.71673 -3.92353,2.24728 -6.0864,2.24896 -7.02995,0.005 -16.07164,-8.16062 -19.79387,-7.27907 -3.72223,0.88154 -3.80747,2.42472 -6.71082,5.21251 -16.61296,28.91837 -29.38473,55.47582 -33.83076,80.7385 -6.07031,19.28196 -5.23538,42.15382 5.23418,65.94438 2.50294,9.42122 4.33616,11.97864 2.31307,17.76936 -2.0231,5.79073 -5.90251,14.81476 -10.82484,13.1692 -7.05364,-3.77097 -29.321146,-13.83375 -41.176719,-22.70851 -10.810581,-8.09251 -20.553348,-16.52362 -20.788601,-26.08719 -0.204998,-8.33362 6.858869,-11.67032 11.162395,-15.12909 4.452654,-3.57863 6.486311,-7.04757 9.723109,-34.20142 0.346269,-2.16052 7.724689,-33.36285 16.587126,-51.39503 25.12241,-59.10529 71.32475,-127.77826 71.32475,-127.77826"
   id="path4"
   style="stroke:#fbfa24;stroke-width:10;stroke-dasharray:none;stroke-opacity:1"
   sodipodi:nodetypes="cssssascccscsssccc" />
</svg>
