<?xml version="1.0" encoding="UTF-8" standalone="no"?>
<!-- Generator: Adobe Illustrator 25.2.3, SVG Export Plug-In . SVG Version: 6.00 Build 0)  -->

<svg
   version="1.1"
   id="Layer_1"
   x="0px"
   y="0px"
   viewBox="0 0 1449.7252 548.1811"
   xml:space="preserve"
   sodipodi:docname="10 - USA(Miami).svg"
   width="1449.7252"
   height="548.18109"
   inkscape:version="1.3.2 (091e20e, 2023-11-25, custom)"
   xmlns:inkscape="http://www.inkscape.org/namespaces/inkscape"
   xmlns:sodipodi="http://sodipodi.sourceforge.net/DTD/sodipodi-0.dtd"
   xmlns="http://www.w3.org/2000/svg"
   xmlns:svg="http://www.w3.org/2000/svg"><defs
   id="defs4" /><sodipodi:namedview
   id="namedview4"
   pagecolor="#505050"
   bordercolor="#eeeeee"
   borderopacity="1"
   inkscape:showpageshadow="0"
   inkscape:pageopacity="0"
   inkscape:pagecheckerboard="0"
   inkscape:deskcolor="#d1d1d1"
   inkscape:zoom="0.90696603"
   inkscape:cx="914.58772"
   inkscape:cy="244.22083"
   inkscape:window-width="2560"
   inkscape:window-height="1494"
   inkscape:window-x="3829"
   inkscape:window-y="198"
   inkscape:window-maximized="1"
   inkscape:current-layer="Layer_1" />
<style
   type="text/css"
   id="style1">
	.st0{fill:none;stroke:#374151;stroke-width:4.5474;stroke-miterlimit:2.2737;}
	.st1{fill:none;stroke:#EF4444;stroke-width:1.1368;stroke-miterlimit:2.2737;}
	.st2{fill:none;stroke:#3B82F6;stroke-width:1.1368;stroke-miterlimit:2.2737;}
	.st3{fill:none;stroke:#FBBF24;stroke-width:1.1368;stroke-miterlimit:2.2737;}
</style>



<g
   id="g4"
   transform="matrix(0.32414262,-0.94600822,-0.94600822,-0.32414262,1271.5731,1482.8552)"><path
     vector-effect="non-scaling-stroke"
     class="st1"
     d="m 1081.7458,974.99206 -44.7094,-219.8577 c 0,0 -1.6108,-6.8523 -3.3315,-9.86735 -4.0467,-7.09055 -8.3236,-15.75426 -15.9947,-18.54819 -7.7705,-2.83012 -16.7489,1.05835 -24.49003,3.96782 -18.54326,6.96946 -30.96876,27.64374 -50.40198,31.48767 -15.72217,3.10988 -31.61966,-6.39098 -48.03823,-12.43588 -16.3959,-6.03656 -33.48116,-7.97703 -47.02393,-2.89087 -17.70311,6.64861 -32.06368,18.27184 -45.32291,32.54812 -13.25922,14.27629 -25.41711,31.20564 -34.28956,49.98279 -8.87245,18.77714 -15.93456,38.89665 -19.73979,59.30055 -3.80524,20.4039 -4.35359,41.09219 -1.67361,60.50146 10.3749,75.13842 25.44592,127.21012 43.39865,224.53422 3.65815,19.8313 3.0344,41.9386 -5.39942,60.2562 -15.30084,33.2321 -60.10479,45.9083 -76.6888,78.5191 -7.40633,14.5638 -10.02146,32.0993 -8.16287,48.3321 1.90779,16.6626 14.06384,30.5259 19.37582,46.4339 3.67223,10.9973 8.25368,22.1182 8.57993,33.7079 0.21903,7.7809 -2.81765,17.2682 -4.47809,22.9186 -1.66045,5.6504 -3.92265,11.1064 -6.43887,16.4197 -3.962,8.3663 -7.97387,16.8574 -13.57759,24.2256 -5.72605,7.5291 -12.87586,13.9345 -20.14924,19.9821 -7.66037,6.3694 -15.65552,12.5659 -24.56468,17.0243 -8.19672,4.1018 -16.95162,7.9258 -26.08461,8.7001 -9.41565,0.7983 -19.23225,-0.8356 -28.01809,-4.3142 -9.54488,-3.7791 -19.93743,-8.7267 -25.39708,-17.4203 -5.57531,-8.8777 -5.8494,-20.6609 -4.75995,-31.0874 1.15687,-11.0717 7.75272,-20.8712 11.76941,-31.2533 4.47818,-11.5748 10.42133,-22.645 13.74638,-34.6022 2.90264,-10.4382 5.31631,-32.0651 5.31631,-32.0651"
     id="path2"
     style="stroke:#ef4444;stroke-width:10;stroke-dasharray:none;stroke-opacity:1"
     sodipodi:nodetypes="ccaaassssssssaaaaasaaaaaaaaaac" /><path
     vector-effect="non-scaling-stroke"
     class="st2"
     d="m 605.19737,1399.4918 c 0,0 0.21552,-33.6282 4.27264,-61.249 2.02856,-13.8104 4.27997,-26.3717 7.46527,-37.9264 3.18531,-11.5547 15.72497,-51.2519 24.24331,-76.6836 20.42983,-60.9936 44.6531,-117.4117 66.97106,-181.1748 5.83732,-16.6774 8.91314,-36.0022 9.64186,-53.75812 0.72871,-17.7559 -0.88967,-33.94284 -1.84762,-51.91244 -0.95796,-17.96959 -3.79578,-36.47812 -3.96448,-54.12074 -0.1687,-17.64263 1.73628,-38.85167 3.88675,-55.95079 4.30093,-34.19825 17.50491,-68.30275 29.5387,-101.38048 5.00521,-13.75804 10.98168,-27.18704 17.68105,-40.20449 7.82188,-15.1986 16.64869,-29.90575 26.20048,-44.08117 43.39959,-64.40755 114.52961,-153.59141 178.76984,-225.14649 32.12007,-35.77753 62.40647,-65.32757 84.32517,-87.56666 21.5028,-21.81714 22.9194,-24.21093 37.9698,-36.99342 7.094,-6.02506 17.7686,-12.82996 26.352,-9.23106 13.5643,5.68731 14.69,56.28351 30.583,75.48687 12.5365,15.14771 33.6588,20.2536 50.5625,11.77606 16.9117,-8.48156 22.8487,-30.82466 29.3021,-48.60938 5.753,-15.8545 9.8256,-30.44023 21.7818,-39.12226 9.7442,-7.07574 22.2449,-9.62782 34.0167,-12.16516 4.4433,-0.95772 19.2989,-3.11364 24.0212,-4.031 3.0106,-0.58483 5.2395,1.23928 6.1242,5.65863 0.4992,2.49324 1.6465,11.83379 2.7809,13.92869 2.0949,3.86869 2.9359,4.91079 7.1175,6.27799 9.9252,3.24506 25.7449,2.34999 39.2786,4.06973 11.1065,1.41131 28.634,0.10401 38.8652,8.12832 1.2794,1.00344 2.4212,2.58893 2.7217,4.13338 0.3005,1.54446 -0.5013,4.51263 -0.5013,4.51263 l -22.2807,73.88544"
     id="path3"
     style="stroke:#3b8bf6;stroke-width:10;stroke-dasharray:none;stroke-opacity:1"
     sodipodi:nodetypes="cssssssssaassssasssssssssssscc" /><path
     vector-effect="non-scaling-stroke"
     class="st3"
     d="M 1381.0768,386.04208 1049.2921,1496.9172 c 0,0 -1.9765,5.4878 -4.9541,8.9492 -2.9776,3.4614 -6.9561,4.8964 -10.4242,5.4312 -6.8867,1.0619 -15.2245,-3.071 -18.8605,-9.0153 -7.2355,-11.829 -9.3428,-23.7165 -13.4609,-37.287 -4.11807,-13.5706 -11.22892,-37.7251 -10.54834,-57.0531 0.3911,-11.1071 4.21244,-21.9647 8.35279,-32.2787 4.09055,-10.19 9.33375,-20.0882 16.08865,-28.745 13.1706,-16.8788 33.0062,-27.6286 46.7388,-44.0533 14.3399,-17.151 27.4084,-35.816 36.6295,-56.1816 8.8378,-19.5191 15.0872,-40.5954 17.3037,-61.9071 2.0398,-19.6129 -1.2524,-39.4845 -3.8599,-59.0301 -6.78,-50.8227 -30.5518,-150.75434 -30.5518,-150.75434"
     id="path4"
     style="stroke:#fbf724;stroke-width:10;stroke-dasharray:none;stroke-opacity:1"
     sodipodi:nodetypes="ccssssaaaaaaac" /></g>
</svg>
