<?xml version="1.0" encoding="UTF-8" standalone="no"?>
<!-- Generator: Adobe Illustrator 25.2.3, SVG Export Plug-In . SVG Version: 6.00 Build 0)  -->

<svg
   version="1.1"
   id="Layer_1"
   x="0px"
   y="0px"
   viewBox="0 0 1279 801"
   style="enable-background:new 0 0 1279 801;"
   xml:space="preserve"
   sodipodi:docname="12 - austria.svg"
   inkscape:version="1.3.2 (091e20e, 2023-11-25, custom)"
   xmlns:inkscape="http://www.inkscape.org/namespaces/inkscape"
   xmlns:sodipodi="http://sodipodi.sourceforge.net/DTD/sodipodi-0.dtd"
   xmlns="http://www.w3.org/2000/svg"
   xmlns:svg="http://www.w3.org/2000/svg"><defs
   id="defs4" /><sodipodi:namedview
   id="namedview4"
   pagecolor="#505050"
   bordercolor="#eeeeee"
   borderopacity="1"
   inkscape:showpageshadow="0"
   inkscape:pageopacity="0"
   inkscape:pagecheckerboard="0"
   inkscape:deskcolor="#d1d1d1"
   inkscape:zoom="1.004545"
   inkscape:cx="514.16314"
   inkscape:cy="445.47533"
   inkscape:window-width="2560"
   inkscape:window-height="1494"
   inkscape:window-x="3829"
   inkscape:window-y="198"
   inkscape:window-maximized="1"
   inkscape:current-layer="Layer_1" />
<style
   type="text/css"
   id="style1">
	.st0{fill:none;stroke:#374151;stroke-width:8;}
	.st1{fill:none;stroke:#EF4444;stroke-width:2;}
	.st2{fill:none;stroke:#3B82F6;stroke-width:2;}
	.st3{fill:none;stroke:#FBBF24;stroke-width:2;}
</style>



<path
   vector-effect="non-scaling-stroke"
   class="st1"
   d="M 913.38731,526.3507 C 866.37216,561.01397 782.17342,632.22627 710.97443,686.44185 698.17544,699.30423 690.66824,684.08876 676.06565,674.69151 658.00318,661.07336 614.68045,636.83638 603.80809,629.85555 548.44759,595.57941 499.55098,568.79933 455.38956,531.73178 435.28259,514.78192 414.90752,499.73077 394.12771,480.5867 373.3479,461.44263 352.16334,438.20564 330.43738,420.88412 308.71143,403.56259 286.44407,386.15653 263.49866,372.6743 240.55324,359.19208 216.92978,349.63369 192.49161,340.00753"
   id="path2"
   style="stroke:#ef4444;stroke-width:7.55905512;stroke-dasharray:none;stroke-opacity:1"
   sodipodi:nodetypes="cccccsssc" /><path
   vector-effect="non-scaling-stroke"
   class="st2"
   d="M 192.49161,340.00753 95.977182,302.18746 c 0,0 -10.304309,-4.96741 -16.054282,-7.34066 -5.449592,-2.24927 -12.580687,-9.53637 -6.700937,-15.16965 14.724474,-14.10724 37.676407,-26.31107 64.143957,-39.10132 26.46755,-12.79026 56.69958,-25.91806 86.482,-35.40267 29.78241,-9.4846 51.1152,-14.43913 75.78427,-20.00953 24.66907,-5.57039 42.52597,-9.48327 63.80192,-14.16628 32.26284,-7.10131 63.90344,-12.8897 96.8275,-21.12607 32.92406,-8.23637 67.61789,-19.24366 99.4461,-30.74709 23.19035,-9.41068 47.1634,-17.6947 70.84034,-26.282421 6.96863,-2.527549 13.76637,-4.661236 20.6633,-7.953545 6.89692,-3.29231 13.89302,-7.743242 21.25835,-6.905281 6.6379,0.755201 13.43397,5.059056 16.9038,10.76803 4.83272,7.951359 3.80959,10.412967 2.4713,27.804787 -7.14281,53.54839 -40.15068,98.68872 -86.37351,122.23481 -43.18453,18.98837 -91.4863,23.40507 -136.117,37.03144 -20.55669,6.74813 -43.37395,10.90231 -54.12891,30.51139 -12.79311,21.78235 -16.93691,46.91342 -4.33379,68.44511 16.61456,27.91155 88.17858,70.68187 113.02662,90.56535"
   id="path3"
   style="stroke:#3b9ff6;stroke-width:7.55905512;stroke-dasharray:none;stroke-opacity:0.86725664"
   sodipodi:nodetypes="ccsssssascsssacccccc" /><path
   vector-effect="non-scaling-stroke"
   class="st3"
   d="m 523.91821,465.34386 c 13.3204,8.022 25.51053,12.49001 38.9612,11.19663 16.01882,-1.54033 32.29435,-9.92463 43.00899,-21.93178 15.80134,-17.70746 15.77279,-46.1184 24.94234,-66.68588 18.53414,-44.76709 61.23761,-70.51835 103.08745,-87.05206 69.64449,-31.21833 144.54057,-64.30626 214.43537,-95.09851 35.72117,-16.21474 62.01744,-37.5872 96.77744,-39.10398 12.3636,-0.53949 25.0724,4.19786 35.5031,10.85751 15.7762,10.07258 22.2269,23.98753 37.494,41.80098 7.8981,9.65362 16.4848,19.03245 24.3429,28.47167 7.8581,9.43923 18.778,18.89612 23.9712,30.83409 2.587,5.94692 4.4678,12.86922 3.0962,19.20776 -3.3502,15.48229 -17.0135,26.77416 -26.282,39.59267 -9.4625,11.63132 -20.22,22.04063 -31.5462,31.87402 -4.4058,3.82508 -198.32289,157.04372 -198.32289,157.04372"
   id="path4"
   style="stroke:#fbec24;stroke-width:7.55905512;stroke-dasharray:none;stroke-opacity:0.85840702"
   sodipodi:nodetypes="caacccaacsaacsc" />
</svg>
