<?xml version="1.0" encoding="UTF-8" standalone="no"?>
<!-- Generator: Adobe Illustrator 25.2.3, SVG Export Plug-In . SVG Version: 6.00 Build 0)  -->

<svg
   version="1.1"
   id="Layer_1"
   x="0px"
   y="0px"
   viewBox="0 0 1542 866.99998"
   xml:space="preserve"
   sodipodi:docname="11 - spain.svg"
   width="1542"
   height="867"
   inkscape:version="1.3.2 (091e20e, 2023-11-25, custom)"
   xmlns:inkscape="http://www.inkscape.org/namespaces/inkscape"
   xmlns:sodipodi="http://sodipodi.sourceforge.net/DTD/sodipodi-0.dtd"
   xmlns="http://www.w3.org/2000/svg"
   xmlns:svg="http://www.w3.org/2000/svg"><defs
   id="defs4" /><sodipodi:namedview
   id="namedview4"
   pagecolor="#505050"
   bordercolor="#eeeeee"
   borderopacity="1"
   inkscape:showpageshadow="0"
   inkscape:pageopacity="0"
   inkscape:pagecheckerboard="0"
   inkscape:deskcolor="#d1d1d1"
   inkscape:zoom="0.89279745"
   inkscape:cx="828.29538"
   inkscape:cy="326.50183"
   inkscape:window-width="2560"
   inkscape:window-height="1494"
   inkscape:window-x="3829"
   inkscape:window-y="198"
   inkscape:window-maximized="1"
   inkscape:current-layer="Layer_1" />
<style
   type="text/css"
   id="style1">
	.st0{fill:none;stroke:#374151;stroke-width:6.912;stroke-miterlimit:3.456;}
	.st1{fill:none;stroke:#EF4444;stroke-width:1.728;stroke-miterlimit:3.456;}
	.st2{fill:none;stroke:#3B82F6;stroke-width:1.728;stroke-miterlimit:3.456;}
	.st3{fill:none;stroke:#FBBF24;stroke-width:1.728;stroke-miterlimit:3.456;}
</style>



<path
   vector-effect="non-scaling-stroke"
   class="st1"
   d="m 1103.8255,632.71289 c -238.54681,-1.86377 -461.22583,0.93179 -699.87073,0.26897 -29.07201,-0.48934 -77.04656,1.7076 -105.994,0.28544 -32.05541,1.10453 -39.85435,-5.70782 -51.85819,-19.7868 -11.06681,-12.97996 -7.70726,-33.2881 -7.63084,-49.47977 0.074,-15.67204 -5.05329,-32.70916 -15.50659,-44.38592 -10.85056,-12.12051 -26.64618,-16.68142 -41.964,-23.45924 C 145.60345,480.49281 113.4867,470.25026 90.715223,454.83162 76.216681,445.01461 64.651809,426.37784 58.685871,410.91125 40.6846,371.69641 47.260525,329.57545 70.143439,295.05214 104.22305,245.41746 170.84808,214.9032 230.50994,211.29361 c 23.53169,-0.96849 80.50654,-1.36267 80.50654,-1.36267 l 121.62258,0.43367"
   id="path2"
   style="stroke:#ec2b2b;stroke-width:10;stroke-dasharray:none;stroke-opacity:0.81858402"
   sodipodi:nodetypes="cccssssscsscc" /><path
   vector-effect="non-scaling-stroke"
   class="st2"
   d="m 432.63906,210.36461 c 34.7822,0.73829 79.60307,-7.33573 101.61463,24.22758 13.05102,20.04717 11.87174,47.64621 3.41283,69.10038 -8.55319,21.69331 -29.47604,38.03731 -50.20645,48.71472 -19.47472,10.03065 -42.73959,11.79527 -64.6457,11.82546 -63.2733,0.0872 -149.77871,-2.03399 -174.77547,-0.4801 -15.62731,1.86649 -25.52552,9.76656 -32.08778,20.66574 -7.75526,12.88062 -1.60369,29.50068 7.23082,41.56854 4.33523,5.92189 11.40177,9.2547 17.33459,13.57497 27.46581,20.00053 67.41094,46.06595 84.44425,57.08498 34.0666,22.03805 73.32413,44.84047 113.42739,49.30516 27.12603,3.01993 90.02801,2.05735 120.87529,2.80864 27.08114,0.65956 33.53505,-12.22594 42.16022,-26.38401 11.35611,-18.64086 -0.49028,-44.24375 5.40939,-65.25891 3.84173,-13.68459 8.2764,-18.78411 19.1088,-38.11948 10.8324,-19.33537 29.56681,-43.69736 45.9609,-68.27918 16.39408,-24.58182 33.99087,-55.71129 55.91887,-79.59819 10.55076,-11.49329 21.63389,-23.67684 35.86267,-30.07654 16.04694,-7.21746 34.68336,-9.27217 52.21321,-7.75538 14.00915,1.21216 27.22977,7.47872 40.04199,13.27292 32.16371,14.54569 61.01715,35.51488 91.4056,53.47659 96.81339,57.22353 289.66899,172.96873 289.66899,172.96873"
   id="path3"
   style="stroke:#3b86f6;stroke-width:10;stroke-dasharray:none;stroke-opacity:0.85176998"
   sodipodi:nodetypes="ccaascssasssaassaaaaac" /><path
   vector-effect="non-scaling-stroke"
   class="st3"
   d="m 1237.0141,473.00723 c 24.2505,13.10385 52.3872,36.24667 73.5378,41.39913 12.5214,2.15775 29.911,-8.14021 35.6375,-17.38138 14.2028,-49.13231 -10.5999,-82.11943 -13.3525,-87.24526 -8.9138,-16.59906 -31.0884,-28.68375 -44.7556,-36.58979 -12.2127,-7.06465 -37.0637,-12.17176 -52.0293,-19.48009 -14.9655,-7.30833 -24.2449,-18.46161 -29.9124,-32.54977 -17.5373,-49.33228 24.0749,-91.67104 70.0438,-80.17772 13.3315,2.85434 73.9447,23.74685 73.9447,23.74685 l 74.2807,24.75495 c 1.6652,-0.64584 60.9029,22.56461 55.4617,88.19108 0.9304,33.75988 0.031,116.154 1.01,139.69627 0.6872,16.52216 0.046,34.84197 -4.5106,49.95533 -4.5567,15.11336 -11.0291,25.02026 -21.1727,36.71662 -6.6116,7.62376 -20.0999,15.76977 -29.925,20.19182 -9.825,4.42206 -17.9869,7.12014 -26.7376,7.84805 -17.5015,1.45581 -42.1098,1.34554 -67.3033,1.47533 -49.7299,-1.86287 -177.9515,2.61462 -227.4058,-0.84576"
   id="path4"
   style="stroke:#fbf124;stroke-width:10;stroke-dasharray:none;stroke-opacity:0.86946905"
   sodipodi:nodetypes="cccsssccccsssssscc" />
</svg>
