<?xml version="1.0" encoding="UTF-8" standalone="no"?>
<!-- Generator: Adobe Illustrator 25.2.3, SVG Export Plug-In . SVG Version: 6.00 Build 0)  -->

<svg
   version="1.1"
   id="Layer_1"
   x="0px"
   y="0px"
   viewBox="0 0 901.4 1016.1"
   style="enable-background:new 0 0 901.4 1016.1;"
   xml:space="preserve"
   sodipodi:docname="14 - hungary.svg"
   inkscape:version="1.3.2 (091e20e, 2023-11-25, custom)"
   xmlns:inkscape="http://www.inkscape.org/namespaces/inkscape"
   xmlns:sodipodi="http://sodipodi.sourceforge.net/DTD/sodipodi-0.dtd"
   xmlns="http://www.w3.org/2000/svg"
   xmlns:svg="http://www.w3.org/2000/svg"><defs
   id="defs4" /><sodipodi:namedview
   id="namedview4"
   pagecolor="#505050"
   bordercolor="#eeeeee"
   borderopacity="1"
   inkscape:showpageshadow="0"
   inkscape:pageopacity="0"
   inkscape:pagecheckerboard="0"
   inkscape:deskcolor="#d1d1d1"
   inkscape:zoom="1.7773357"
   inkscape:cx="389.06551"
   inkscape:cy="668.13491"
   inkscape:window-width="3840"
   inkscape:window-height="2054"
   inkscape:window-x="-11"
   inkscape:window-y="-11"
   inkscape:window-maximized="1"
   inkscape:current-layer="Layer_1" />
<style
   type="text/css"
   id="style1">
	.st0{fill:none;stroke:#374151;stroke-width:6.6462;stroke-miterlimit:3.3231;}
	.st1{fill:none;stroke:#EF4444;stroke-width:1.6615;stroke-miterlimit:3.3231;}
	.st2{fill:none;stroke:#3B82F6;stroke-width:1.6615;stroke-miterlimit:3.3231;}
	.st3{fill:none;stroke:#FBBF24;stroke-width:1.6615;stroke-miterlimit:3.3231;}
</style>




<g
   id="g4"
   transform="matrix(0.593855,0.73113588,-0.73049012,0.59437997,471.58122,-196.1639)"
   style="stroke-width:10;stroke-dasharray:none"><path
     vector-effect="non-scaling-stroke"
     class="st1"
     d="m 392.3472,897.15853 c -84.5,-68.5 -171.13291,-139.25914 -255.53291,-207.95914 C 107.21429,664.39939 46.5,614.8 46.5,614.8 47.231592,613.90008 11.118721,586.9586 0.3779777,576.0149 c -8.5,-15.1 -3.2203228,-29.45467 12.5796773,-34.95467 26.790228,-0.66475 67.124248,-0.87334 98.404475,9.47643 34.89259,11.545 62.50285,31.87409 94.38368,56.97756 32.0225,25.21502 62.67304,54.86025 93.7943,77.83734 11.74194,8.66917 23.97283,20.13278 38.55989,20.74844 11.84596,0.49997 24.99937,-6.97649 32.64863,-14.14994 7.64925,-7.17345 9.66975,-16.14538 9.7574,-25.12791 C 380.69528,647.42687 367.96515,630.09487 360.5,612.2 c -8.37442,-20.07453 -26.11352,-37.35961 -27.75484,-59.05471 -0.6074,-8.02865 6.8652,-23.16587 6.8652,-23.16587 l 49.19567,-93.25727 71.35883,-139.81897"
     id="path2"
     style="stroke:#ef4444;stroke-width:10;stroke-dasharray:none;stroke-opacity:0.77433598"
     sodipodi:nodetypes="cccccassasaaaccc" /><path
     vector-effect="non-scaling-stroke"
     class="st2"
     d="m 460.16486,296.90318 c 8.25,-12.65 19.49331,-32.82516 30.84654,-48.12922 6.13542,-8.2705 13.5285,-15.53333 20.05669,-23.49747 5.33448,-6.50787 13.38496,-11.72488 15.61128,-19.83859 2.75354,-10.03515 -2.81687,-20.61438 -4.08619,-30.93943 -6.46253,-52.5684 -48.42171,-114.510588 -17.96946,-157.874338 5.50306,-7.8363116 15.52825,-14.5622054 25.76088,-16.2997629 20.83,-2.5919893 36.22368,3.4464971 52.7842,15.2416759 7.30589,5.128936 15.41105,9.067011 22.13574,14.624279 20.32555,16.796973 35.78258,37.301187 55.87232,59.475872 20.08975,22.174684 44.57615,46.644884 50.77615,57.794884 7,16.1 -11.1017,18.66957 -15.5017,33.56957 -6.1,24.1 13.54869,60.76935 18.84869,84.06935 6.5,34.3 5.9711,58.12753 44.9711,64.52753 10.66511,4.34181 62.18772,0.78948 78.64813,22.52889 17.01598,22.47315 1.77754,56.43564 0.39139,84.60474 -1.46785,29.82951 -15.10447,59.85501 -9.20883,89.12632 4.04543,20.0852 19.12173,36.24776 29.49482,53.91045 9.5424,16.24826 24.23826,29.93849 30.09514,47.85127 3.93244,12.02703 6.37471,25.76461 2.6819,37.87397 -7.99951,26.23177 -26.01353,37.67564 -50.61353,64.87564"
     id="path3"
     style="stroke:#3bc7f6;stroke-width:10;stroke-dasharray:none;stroke-opacity:1"
     sodipodi:nodetypes="caaaasssssccccaaaaaac" /><path
     vector-effect="non-scaling-stroke"
     class="st3"
     d="m 841.76012,730.39881 c -31,32.1 -69.84065,74.69065 -99.44065,107.99065 -13.01811,13.20775 -44.1472,49.85389 -62.36892,68.23303 -5.24573,5.29106 -20.1001,8.84728 -25.88996,3.19837 -16.9023,-16.49083 -44.724,-45.65249 -44.724,-45.65249 0,0 -35.12298,-41.48802 -57.08865,-57.00022 -10.98191,-7.75546 -21.75423,-19.69937 -36.40419,-17.36737 -10.66192,2.5235 -22.27611,12.19028 -26.69159,23.09509 -3.34798,8.26843 -1.52055,18.62117 2.35783,26.64806 7.16417,14.82735 23.39244,23.21365 35.8477,33.98196 C 539.69634,884.19337 565.8,903.8 565.8,903.8 c 0,0 31.80773,25.55408 35.25989,44.04844 3.124,16.73626 -3.7317,36.29255 -15.37174,48.72906 -8.88257,9.4904 -23.38629,15.311 -36.32602,14.1592 -29.34011,-2.6119 -55.93688,-30.24385 -75.33688,-46.14385 -28.1,-22.9 -53.67805,-44.23432 -81.67805,-67.43432"
     id="path4"
     style="stroke:#d8d247;stroke-width:10;stroke-dasharray:none;stroke-opacity:1"
     sodipodi:nodetypes="ccsscasaaacaaacc" /></g></svg>
