<?xml version="1.0" encoding="UTF-8" standalone="no"?>
<!-- Generator: Adobe Illustrator 25.2.3, SVG Export Plug-In . SVG Version: 6.00 Build 0)  -->

<svg
   version="1.1"
   id="Layer_1"
   x="0px"
   y="0px"
   viewBox="0 0 1542 867.00002"
   xml:space="preserve"
   sodipodi:docname="13 - greatbritain.svg"
   width="1542"
   height="867"
   inkscape:version="1.3.2 (091e20e, 2023-11-25, custom)"
   xmlns:inkscape="http://www.inkscape.org/namespaces/inkscape"
   xmlns:sodipodi="http://sodipodi.sourceforge.net/DTD/sodipodi-0.dtd"
   xmlns="http://www.w3.org/2000/svg"
   xmlns:svg="http://www.w3.org/2000/svg"><defs
   id="defs4" /><sodipodi:namedview
   id="namedview4"
   pagecolor="#505050"
   bordercolor="#eeeeee"
   borderopacity="1"
   inkscape:showpageshadow="0"
   inkscape:pageopacity="0"
   inkscape:pagecheckerboard="0"
   inkscape:deskcolor="#d1d1d1"
   inkscape:zoom="0.90696603"
   inkscape:cx="799.9197"
   inkscape:cy="442.68472"
   inkscape:window-width="2560"
   inkscape:window-height="1494"
   inkscape:window-x="3829"
   inkscape:window-y="198"
   inkscape:window-maximized="1"
   inkscape:current-layer="Layer_1" />
<style
   type="text/css"
   id="style1">
	.st0{fill:none;stroke:#374151;stroke-width:4.5474;stroke-miterlimit:2.2737;}
	.st1{fill:none;stroke:#EF4444;stroke-width:1.1368;stroke-miterlimit:2.2737;}
	.st2{fill:none;stroke:#3B82F6;stroke-width:1.1368;stroke-miterlimit:2.2737;}
	.st3{fill:none;stroke:#FBBF24;stroke-width:1.1368;stroke-miterlimit:2.2737;}
</style>



<path
   vector-effect="non-scaling-stroke"
   class="st1"
   d="m 553.95383,115.83336 123.03819,86.31 c 0,0 49.22454,29.7623 62.37903,53.8857 8.44494,15.48677 6.79401,34.77066 7.39153,52.40018 0.68893,20.32648 -3.75247,42.71474 -4.412,60.85474 0.85007,23.84207 7.20931,48.05257 22.28217,66.91687 17.02356,21.57387 38.17181,45.18481 54.9876,69.45942 9.15496,13.21573 29.33777,25.87058 24.88132,41.31756 -3.61973,12.54672 -21.12524,13.13423 -34.98857,18.45079 -16.49131,6.32439 -43.66181,7.412 -46.4175,24.72464 -1.77181,11.13141 3.94266,20.19752 23.4342,24.37758 21.3877,6.89358 58.63496,16.61307 88.36889,14.18147 5.767,-0.47162 11.96038,-0.61138 16.52246,-5.35321 13.10699,-13.62342 24.81358,-29.07814 39.84507,-46.98757 L 1140.2859,332.87505"
   id="path2"
   style="stroke:#ef4444;stroke-width:10;stroke-dasharray:none;stroke-opacity:0.87168097"
   sodipodi:nodetypes="ccaaccassacsscc" /><path
   vector-effect="non-scaling-stroke"
   class="st2"
   d="m 1140.2859,332.87505 c 8.2213,-10.62855 17.9514,-18.55867 24.75,-29.42293 6.4257,-10.26846 14.395,-21.08986 14.7832,-33.19689 0.4155,-12.95672 -3.4785,-28.25915 -13.5123,-36.46724 -12.2385,-10.01166 -31.5955,-3.23128 -46.8644,-7.33944 -13.1626,-3.54148 -29.3338,-4.37843 -38.1204,-14.79923 -6.2872,-7.45651 -8.0802,-19.18353 -5.8292,-28.6736 2.422,-10.21097 9.9683,-20.27175 19.4599,-24.74836 9.5199,-4.48995 21.2942,-1.55943 31.5683,0.7278 13.5051,3.00655 25.3639,11.06392 37.983,16.73719 12.1961,5.48307 24.788,10.2049 36.4645,16.72144 12.9488,7.22656 26.2076,14.52427 37.0124,24.68054 16.7794,15.77222 32.3006,34.02477 41.8079,54.99907 10.9872,24.23895 11.9993,51.91089 15.9551,78.22812 4.6348,30.83496 5.5108,62.12587 9.0774,93.10256 2.7642,24.00782 7.1382,47.82183 9.5475,71.86786 2.0171,20.13082 5.3671,40.45409 5.3655,60.52398 -10e-4,12.29777 -4.8089,25.31939 -12.9319,34.55259 -16.5316,18.79102 -43.0518,26.0326 -66.3936,35.06349 -23.9529,9.26735 -49.3982,14.33414 -74.6077,19.24416 -21.0885,4.10737 -42.511,6.38398 -63.8911,8.50149 -21.4813,2.12753 -43.1124,2.39558 -64.6219,4.21625 -18.5581,1.57084 -37.2212,2.6098 -55.5729,5.78559 -25.18736,4.35873 -41.85604,30.6444 -65.85738,31.12818 -18.34063,0.36969 -35.05699,-7.48975 -51.63641,-13.33509 -16.57943,-5.84533 -32.92446,-10.16383 -50.32753,-9.53412 -7.92516,0.28676 -15.86353,2.93611 -22.80971,6.76247 -8.3217,4.58407 -13.66026,13.33017 -21.45099,18.76791 -6.07998,4.24368 -12.45507,8.41675 -19.52111,10.6631 -7.81175,2.4834 -16.3879,4.44053 -24.42668,2.83784 -8.77704,-1.74988 -16.63064,-7.28455 -23.44258,-13.08938 -6.06302,-5.16664 -10.28933,-12.19601 -14.81275,-18.75292 -5.30921,-7.69597 -9.14964,-16.33432 -14.40275,-24.0687 -5.45157,-8.0266 -10.34793,-16.78048 -17.70869,-23.10227 -18.96534,-16.28838 -44.51185,-26.2498 -65.73114,-36.11613"
   id="path3"
   style="stroke:#3bb5f6;stroke-width:10;stroke-dasharray:none;stroke-opacity:1"
   sodipodi:nodetypes="caaaaaaaaaaaaaassaaaaassssaaaaaaaac" /><path
   vector-effect="non-scaling-stroke"
   class="st3"
   d="m 589.58748,615.34038 c -66.04266,-32.73564 -131.15759,-65.61246 -196.50082,-98.88406 -32.34094,-16.46743 -65.12772,-32.11998 -96.78747,-49.86183 -29.91317,-16.7631 -61.17043,-31.95271 -87.92064,-53.40559 -11.27985,-9.04611 -25.25428,-17.65196 -30.03356,-31.29841 -6.18414,-17.65782 -3.67777,-39.37468 5.10254,-55.89583 6.1969,-11.66017 19.06526,-18.77914 30.68174,-25.05755 16.25568,-8.78577 28.69585,-14.34737 41.50602,-22.5937 7.66867,-4.93658 15.40186,-9.83524 22.52887,-15.52594 38.73401,-30.92795 92.87504,-85.16752 109.38806,-100.72738 21.92824,-25.28965 -29.25725,-25.28278 -17.44215,-58.46818 15.42271,-24.395725 58.38563,-50.241166 87.08058,-51.43644 13.59906,-1.387959 73.04594,48.67332 96.76318,63.64789"
   id="path4"
   style="stroke:#ebfb24;stroke-width:10;stroke-dasharray:none;stroke-opacity:0.66150445"
   sodipodi:nodetypes="caaaaassacccc" />
</svg>
