<?xml version="1.0" encoding="UTF-8" standalone="no"?>
<!-- Generator: Adobe Illustrator 25.2.3, SVG Export Plug-In . SVG Version: 6.00 Build 0)  -->

<svg
   version="1.1"
   id="Layer_1"
   x="0px"
   y="0px"
   viewBox="0 0 1542 867"
   xml:space="preserve"
   sodipodi:docname="15 - belgium.svg"
   width="1542"
   height="867"
   inkscape:version="1.3.2 (091e20e, 2023-11-25, custom)"
   xmlns:inkscape="http://www.inkscape.org/namespaces/inkscape"
   xmlns:sodipodi="http://sodipodi.sourceforge.net/DTD/sodipodi-0.dtd"
   xmlns="http://www.w3.org/2000/svg"
   xmlns:svg="http://www.w3.org/2000/svg"><defs
   id="defs4" /><sodipodi:namedview
   id="namedview4"
   pagecolor="#505050"
   bordercolor="#eeeeee"
   borderopacity="1"
   inkscape:showpageshadow="0"
   inkscape:pageopacity="0"
   inkscape:pagecheckerboard="0"
   inkscape:deskcolor="#d1d1d1"
   inkscape:zoom="1.2763618"
   inkscape:cx="984.43872"
   inkscape:cy="292.62862"
   inkscape:window-width="3840"
   inkscape:window-height="2054"
   inkscape:window-x="-11"
   inkscape:window-y="-11"
   inkscape:window-maximized="1"
   inkscape:current-layer="Layer_1" />
<style
   type="text/css"
   id="style1">
	.st0{fill:none;stroke:#374151;stroke-width:3.8919;stroke-miterlimit:1.9459;}
	.st1{fill:none;stroke:#EF4444;stroke-width:0.973;stroke-miterlimit:1.9459;}
	.st2{fill:none;stroke:#3B82F6;stroke-width:0.973;stroke-miterlimit:1.9459;}
	.st3{fill:none;stroke:#FBBF24;stroke-width:0.973;stroke-miterlimit:1.9459;}
</style>



<path
   vector-effect="non-scaling-stroke"
   class="st1"
   d="m 440.71687,653.90921 c -53.76208,42.11063 -129.59252,101.04439 -183.81508,142.19111 -8.60452,7.97109 -15.88892,7.36321 -18.60089,-4.71656 -0.32754,-2.94957 25.71948,-92.4984 48.48319,-134.29394 17.56167,-32.24427 43.23912,-59.41865 66.74729,-87.62274 22.50363,-26.9989 47.8586,-51.50213 70.9969,-77.95914 7.67685,-8.77794 15.9538,-17.13857 22.49637,-26.7916 10.14315,-14.96538 13.59541,-34.3184 25.66067,-47.78225 8.17115,-9.11834 19.27314,-15.42263 30.26823,-20.80963 12.91667,-6.32848 28.44618,-6.29465 41.10926,-13.11642 29.13317,-15.69442 51.39989,-41.69333 77.2296,-62.37864 25.27549,-20.24147 48.48229,-43.46702 76.07913,-60.40757 39.95123,-24.52439 85.06443,-39.42912 127.8305,-58.62833 93.95997,-42.18197 202.55916,-89.88882 282.88926,-124.273186"
   id="path2"
   style="stroke:#ef4444;stroke-width:12.4572;stroke-dasharray:none;stroke-opacity:1"
   sodipodi:nodetypes="cccaaaaaaaaaac" /><path
   vector-effect="non-scaling-stroke"
   class="st2"
   d="m 1108.0913,77.320314 c 15.5899,-7.738668 25.5412,-13.975914 39.0034,-12.016155 7.2096,1.049527 14.0862,6.100921 18.1862,12.123301 5.1681,7.591269 12.3972,15.831811 21.4874,17.799203 14.5302,3.144769 43.037,-11.702946 43.037,-11.702946 0,0 28.8296,-15.509539 43.468,-12.068361 25.5039,5.995439 40.0341,33.914134 58.4328,52.565794 11.9829,12.14773 23.044,25.20434 33.7129,38.52098 18.8086,23.47637 57.3781,43.00974 53.3111,72.81513 -1.8825,13.79586 -18.8834,26.17932 -32.8035,25.86033 -19.5639,-0.44833 -31.4149,-23.77035 -44.3904,-38.41913 -7.7032,-8.69666 -21.9726,-38.55922 -40.9196,-38.84759 -27.1383,-0.41304 -55.1432,24.3429 -83.1241,35.5242 -29.1555,11.65066 -59.4036,20.52033 -88.2704,32.8689 -44.5131,19.04171 -110.9557,20.13228 -130.6598,63.43557 -6.59834,14.50105 -6.02012,35.14403 -4.07073,52.00938 1.94939,16.86534 5.26996,29.95305 12.15633,45.34356 8.8798,19.84575 30.5245,34.56976 51.6051,39.89065 31.895,8.0505 47.2316,10.27269 69.2677,15.9932 22.3152,5.79295 44.9119,10.49757 67.1294,16.65435 17.6417,4.88876 36.2283,7.72389 52.5075,16.09744 7.8969,4.06193 16.0702,8.90621 21.1652,16.17952 5.1805,7.39531 8.0194,16.8168 8.109,25.84565 0.1474,14.85687 -10.7798,28.02705 -12.4968,42.78511 -0.8412,7.23003 -1.0158,14.85609 1.1466,21.80627 2.2485,7.22697 6.2608,14.28094 11.8824,19.34874 19.2426,17.34691 47.3237,21.2256 70.0788,33.61103 20.9969,11.42847 49.715,16.47447 61.152,37.46676 3.8281,7.0263 1.4251,16.24681 -0.5614,23.99774 -3.1689,12.36464 -8.4487,18.75507 -17.6279,33.994"
   id="path3"
   style="stroke-width:12.4572;stroke-dasharray:none"
   sodipodi:nodetypes="casacaaaaassaasssssaaaaaaaaaac" /><path
   vector-effect="non-scaling-stroke"
   class="st3"
   d="m 1390.0055,756.80294 c -12.5963,28.41176 -24.3335,46.32605 -46.5683,56.20156 -17.8405,7.92378 -39.3788,1.37354 -58.5092,-2.51228 -21.631,-4.39378 -42.5159,-12.86666 -62.0228,-23.19573 -21.335,-11.29705 -40.4326,-26.55219 -59.1093,-41.84878 -16.6377,-13.62663 -32.9773,-27.9085 -46.9243,-44.27855 -12.4946,-14.66538 -20.6294,-32.61972 -32.4871,-47.80474 -24.7291,-31.66824 -46.9636,-67.46744 -80.2993,-89.89824 -28.72089,-19.32564 -64.52708,-25.38727 -97.8086,-34.91158 -21.3459,-6.10864 -43.03889,-16.85694 -65.08032,-14.18515 -27.95858,3.38904 -50.74538,24.45438 -75.86171,37.19556 -25.52298,12.94747 -49.62807,28.84359 -76.03374,39.87988 -16.01841,6.69492 -32.82363,11.43756 -49.62136,15.82474 -33.42083,8.72875 -68.97121,14.22467 -101.51401,20.81335 -1.1908,0.24109 -2.37766,-0.73592 -3.32144,-1.50105 -0.90977,-0.73755 -1.68084,-1.73143 -2.07787,-2.83326 -1.54646,-4.29166 -0.80606,-13.6616 -0.80606,-13.6616 0,0 0.25454,-8.77725 -2.20939,-12.02246 -2.17191,-2.86059 -6.10116,-4.96469 -9.68471,-4.72313 -7.68141,0.51779 -12.99071,8.28456 -19.21284,12.81856 -20.68639,15.07395 -25.772,22.52389 -60.13628,47.74917"
   id="path4"
   style="stroke:#fbd824;stroke-width:12.4572;stroke-dasharray:none;stroke-opacity:0.59513277"
   sodipodi:nodetypes="caaaaaaaaaaaasaacaaac" />
</svg>
