<?xml version="1.0" encoding="UTF-8" standalone="no"?>
<!-- Generator: Adobe Illustrator 25.2.3, SVG Export Plug-In . SVG Version: 6.00 Build 0)  -->

<svg
   version="1.1"
   id="Layer_1"
   x="0px"
   y="0px"
   viewBox="0 0 983 852"
   style="enable-background:new 0 0 983 852;"
   xml:space="preserve"
   sodipodi:docname="16 - netherlands.svg"
   inkscape:version="1.3.2 (091e20e, 2023-11-25, custom)"
   xmlns:inkscape="http://www.inkscape.org/namespaces/inkscape"
   xmlns:sodipodi="http://sodipodi.sourceforge.net/DTD/sodipodi-0.dtd"
   xmlns="http://www.w3.org/2000/svg"
   xmlns:svg="http://www.w3.org/2000/svg"><defs
   id="defs4" /><sodipodi:namedview
   id="namedview4"
   pagecolor="#505050"
   bordercolor="#eeeeee"
   borderopacity="1"
   inkscape:showpageshadow="0"
   inkscape:pageopacity="0"
   inkscape:pagecheckerboard="0"
   inkscape:deskcolor="#d1d1d1"
   inkscape:zoom="1.4142136"
   inkscape:cx="672.8121"
   inkscape:cy="558.96791"
   inkscape:window-width="3840"
   inkscape:window-height="2054"
   inkscape:window-x="-11"
   inkscape:window-y="-11"
   inkscape:window-maximized="1"
   inkscape:current-layer="Layer_1" />
<style
   type="text/css"
   id="style1">
	.st0{fill:none;stroke:#374151;stroke-width:8;}
	.st1{fill:none;stroke:#EF4444;stroke-width:2;}
	.st2{fill:none;stroke:#3B82F6;stroke-width:2;}
	.st3{fill:none;stroke:#FBBF24;stroke-width:2;}
</style>

<path
   vector-effect="non-scaling-stroke"
   class="st1"
   d="m 824.94231,524.12171 c -23,59.9 -53.45502,131.84631 -80.47177,197.65121 -7.16936,17.46246 -13.54856,35.27955 -21.6614,52.32416 -7.92864,16.65763 -12.56581,36.40187 -26.3386,48.67584 -3.75957,3.35044 -9.02994,4.97143 -14.0241,5.6181 -7.87091,1.01916 -16.43467,0.41953 -23.62855,-2.93279 -8.5292,-3.97458 -16.65152,-10.7112 -20.68082,-19.21468 -3.78575,-7.98947 -3.10868,-17.74803 -1.66653,-26.47063 2.65626,-16.06596 12.49472,-30.07651 18.59923,-45.17305 5.89242,-14.57206 11.86685,-29.11501 17.40077,-43.82695 5.12484,-13.6244 10.99646,-27.05002 14.62952,-41.14573 3.36016,-13.03691 5.18619,-26.46055 6.54991,-39.85427 2.27336,-22.32756 -6.6752,-46.88195 2.69557,-67.275 3.82588,-8.32603 12.12885,-14.25044 20.125,-18.725 25.24068,-14.1244 62.93007,-21.82105 77,-36 19.36243,-28.40477 -5.76896,-56.87758 -34,-52 -34.5,11.63028 -88.90679,29.75244 -135,37 -14.83257,2.33223 -30.01394,2.92875 -45,2 -41.84475,-2.5933 -82.08821,-20.00299 -124,-21.05645 -16.51724,-0.41517 -33.18,1.88128 -49.223,5.83272 -35.76245,8.80838 -66.21394,40.84668 -104.43759,56.4552 -18.17678,7.42244 -37.06477,12.54378 -57.52505,12.65937"
   id="path2"
   style="stroke:#ef5444;stroke-width:10;stroke-dasharray:none;stroke-opacity:1"
   sodipodi:nodetypes="caaaaaaaaaaaasccaaassc" />
<path
   vector-effect="non-scaling-stroke"
   class="st2"
   d="m 244.2849,528.66376 c 0,0 -92.36227,-2.2004 -130.16709,-7.06362 C 103.7656,520.26843 93.471061,516.36842 84.8378,510.50254 67.054652,498.41976 49.430023,482.7819 41.371719,462.84957 c -8.565673,-21.18731 -8.210072,-46.5431 -1.981499,-68.53123 7.861811,-27.75379 32.235345,-47.86008 47.495663,-72.33872 6.502683,-10.43076 12.888446,-20.94745 18.766587,-31.74251 9.19641,-16.88897 16.08139,-35.0056 25.78356,-51.60919 10.32285,-17.66579 14.18697,-47.50444 34.37124,-50.85657 60.19259,-9.99655 142.9314,17.44082 178.66327,66.00157 5.13642,6.98056 2.37253,18.48758 -2,26 -8.6967,14.94176 -26.04809,25.60567 -43,29 -32.70471,6.54856 -51.04502,6.09926 -79.63214,15.96814 -23.73028,8.1922 -53.76538,20.81109 -60.36786,45.03186 -4.75424,17.44061 3.48888,45.51241 21,50 44.17909,11.3218 73.00987,11.14495 104,12 98.54355,2.71891 224.3,-27.2 314,-68"
   id="path3"
   sodipodi:nodetypes="csaaaaaassassassc"
   style="stroke-width:10;stroke-dasharray:none" />
<path
   vector-effect="non-scaling-stroke"
   class="st3"
   d="m 598.47054,363.77292 c 0,0 37.18804,-18.26636 55.56131,-27.83176 4.81662,-2.5076 8.95231,-6.99794 14.33059,-7.74759 2.40391,-0.33507 5.05982,0.2772 7.1081,1.57935 11.40709,7.25182 13.3829,24.81762 24.7625,32.1125 6.11553,3.92035 14.01667,5.6802 21.2375,4.8875 7.64206,-0.83894 15.24794,-4.62753 20.81894,-9.92554 5.23334,-4.9769 11.35075,-11.84327 10.29397,-19.06438 -10.89158,-74.42339 -24.89917,-148.98874 -38.96825,-223.05743 -2.2104,-11.63698 -5.25507,-33.712011 0.85534,-43.603859 6.81699,-11.035705 15.17602,-22.408142 27.46363,-25.918206 29.77244,-8.504767 65.2549,-7.117277 97.53637,-5.430586 24.90657,1.301356 50.78461,9.513815 70.67632,24.558758 20.10181,15.203847 35.21733,38.104713 43.32368,61.969473 7.24627,21.33272 6.42637,45.25017 3.025,67.52177 -2.51325,16.45636 -11.06733,31.40541 -17.025,46.95 -36.45825,95.12589 -76.92823,187.44879 -114.52823,283.34879"
   id="path4"
   style="stroke:#fbd224;stroke-width:10;stroke-dasharray:none;stroke-opacity:0.78539801"
   sodipodi:nodetypes="caaaaaasssssaaaac" />
</svg>
