<?xml version="1.0" encoding="UTF-8" standalone="no"?>
<!-- Generator: Adobe Illustrator 25.2.3, SVG Export Plug-In . SVG Version: 6.00 Build 0)  -->

<svg
   version="1.1"
   id="Layer_1"
   x="0px"
   y="0px"
   viewBox="0 0 1542 866.99996"
   xml:space="preserve"
   sodipodi:docname="17 - italy(monxa).svg"
   width="1542"
   height="867"
   inkscape:version="1.3.2 (091e20e, 2023-11-25, custom)"
   xmlns:inkscape="http://www.inkscape.org/namespaces/inkscape"
   xmlns:sodipodi="http://sodipodi.sourceforge.net/DTD/sodipodi-0.dtd"
   xmlns="http://www.w3.org/2000/svg"
   xmlns:svg="http://www.w3.org/2000/svg"><defs
   id="defs4" /><sodipodi:namedview
   id="namedview4"
   pagecolor="#505050"
   bordercolor="#eeeeee"
   borderopacity="1"
   inkscape:showpageshadow="0"
   inkscape:pageopacity="0"
   inkscape:pagecheckerboard="0"
   inkscape:deskcolor="#d1d1d1"
   inkscape:zoom="1.2382429"
   inkscape:cx="828.18966"
   inkscape:cy="677.16922"
   inkscape:window-width="3840"
   inkscape:window-height="2054"
   inkscape:window-x="-11"
   inkscape:window-y="-11"
   inkscape:window-maximized="1"
   inkscape:current-layer="Layer_1" />
<style
   type="text/css"
   id="style1">
	.st0{fill:none;stroke:#374151;stroke-width:3.7565;stroke-miterlimit:1.8783;}
	.st1{fill:none;stroke:#EF4444;stroke-width:0.9391;stroke-miterlimit:1.8783;}
	.st2{fill:none;stroke:#3B82F6;stroke-width:0.9391;stroke-miterlimit:1.8783;}
	.st3{fill:none;stroke:#FBBF24;stroke-width:0.9391;stroke-miterlimit:1.8783;}
</style>



<path
   vector-effect="non-scaling-stroke"
   class="st1"
   d="m 1204.8209,677.04555 c -542.936,-3.60179 -531.54765,1.1564 -576.92072,-3.13651 -3.50364,-0.33149 -4.46551,-5.68721 -5.37586,-9.08671 -0.90998,-3.39813 2.77874,-8.25471 0.11538,-10.55294 -8.68644,-7.49561 -22.83889,2.71961 -33.99222,5.41064 -56.88956,21.6937 -125.88653,24.54334 -185.3025,8.65301 C 359.08684,654.01125 320.10072,614.89637 296.06651,561.07721 277.28268,519.62996 265.07502,405.33212 258.13948,360.91106"
   id="path2"
   style="stroke-width:11.7634;stroke-dasharray:none"
   sodipodi:nodetypes="csaaascc" /><path
   vector-effect="non-scaling-stroke"
   class="st2"
   d="m 258.13948,360.91106 c -3.4326,-14.23209 -5.41398,-38.2569 -10.32052,-61.0159 -2.28944,-2.83571 -6.69386,-2.91017 -10.154,-4.05482 -3.61356,-1.19541 -8.29491,-0.28563 -11.03755,-2.92472 -5.13602,-4.9421 -4.03413,-13.67506 -6.26807,-20.44355 -2.41584,-7.3196 -4.95213,-14.60311 -7.71331,-21.79955 -5.15643,-13.43916 -10.95093,-26.625 -16.52347,-39.89701 -5.59027,-13.31426 -11.14871,-26.6436 -16.9652,-39.8606 -3.92727,-8.92406 -9.35065,-17.27444 -12.10706,-26.62669 -3.02708,-10.27062 -6.93744,-21.30968 -4.68848,-31.77825 1.92737,-8.9716 7.45199,-17.75016 14.84868,-23.180917 11.61885,-8.530715 27.61303,-8.421881 41.72699,-11.34878 34.31972,-7.117091 71.976,-15.445316 102.79672,-18.548836 5.55553,-0.559419 12.8825,-0.567596 16.35959,3.801235 46.80765,58.812078 79.87454,125.510448 121.66346,177.953478 53.3543,59.03794 165.01097,159.43646 221.87975,215.13033"
   id="path3"
   style="stroke-width:11.7634;stroke-dasharray:none"
   sodipodi:nodetypes="ccaaaaaaaaassscc" /><path
   vector-effect="non-scaling-stroke"
   class="st3"
   d="m 681.63701,456.31648 c 20.69997,20.1307 25.99984,26.67394 35.01844,32.86852 3.64277,2.5021 7.27605,6.87584 11.65918,6.31155 15.1473,-1.95009 31.05118,-6.26564 46.52059,-4.43618 8.80358,1.04114 15.88564,6.86078 22.94516,11.76349 7.92526,5.50394 11.86849,17.84907 21.37088,19.52472 52.03904,9.17653 316.14064,8.66762 511.70144,12.17293 16.4372,0.29463 36.3478,1.42012 47.4138,13.57794 12.5076,13.74156 16.6933,37.3645 10.2514,54.79355 -11.2587,30.46154 -44.7348,51.93459 -75.8922,61.09289 -33.352,9.80333 -68.2363,11.42418 -107.8048,13.05966"
   id="path4"
   style="stroke-width:11.7634;stroke-dasharray:none"
   sodipodi:nodetypes="csssassaasc" />
</svg>
