<?xml version="1.0" encoding="UTF-8" standalone="no"?>
<!-- Generator: Adobe Illustrator 25.2.3, SVG Export Plug-In . SVG Version: 6.00 Build 0)  -->

<svg
   version="1.1"
   id="Layer_1"
   x="0px"
   y="0px"
   viewBox="0 0 1542.0001 867.00001"
   xml:space="preserve"
   sodipodi:docname="18 - azerbaijan.svg"
   width="1542"
   height="867"
   inkscape:version="1.3.2 (091e20e, 2023-11-25, custom)"
   xmlns:inkscape="http://www.inkscape.org/namespaces/inkscape"
   xmlns:sodipodi="http://sodipodi.sourceforge.net/DTD/sodipodi-0.dtd"
   xmlns="http://www.w3.org/2000/svg"
   xmlns:svg="http://www.w3.org/2000/svg"><defs
   id="defs4" /><sodipodi:namedview
   id="namedview4"
   pagecolor="#505050"
   bordercolor="#eeeeee"
   borderopacity="1"
   inkscape:showpageshadow="0"
   inkscape:pageopacity="0"
   inkscape:pagecheckerboard="0"
   inkscape:deskcolor="#d1d1d1"
   inkscape:zoom="1.3073301"
   inkscape:cx="431.03116"
   inkscape:cy="473.10164"
   inkscape:window-width="2560"
   inkscape:window-height="1494"
   inkscape:window-x="3829"
   inkscape:window-y="198"
   inkscape:window-maximized="1"
   inkscape:current-layer="Layer_1" />
<style
   type="text/css"
   id="style1">
	.st0{fill:none;stroke:#374151;stroke-width:5.2048;stroke-miterlimit:2.6024;}
	.st1{fill:none;stroke:#EF4444;stroke-width:1.3012;stroke-miterlimit:2.6024;}
	.st2{fill:none;stroke:#3B82F6;stroke-width:1.3012;stroke-miterlimit:2.6024;}
	.st3{fill:none;stroke:#FBBF24;stroke-width:1.3012;stroke-miterlimit:2.6024;}
</style>




<g
   id="g4"
   transform="matrix(0.55722785,0.73026165,-0.72748448,0.55935507,705.48525,-297.21005)"><path
     vector-effect="non-scaling-stroke"
     class="st1"
     d="m 1134.4951,297.57282 217.6718,-92.6942 c 0,0 5.6244,-2.88264 6.9001,-5.54305 1.563,-3.25966 -0,-10.83147 -0,-10.83147 -20.5744,-64.51075 -50.3911,-125.163363 -78.3771,-186.6210536 0,0 -2.668,-5.7659953 -5.2581,-7.2479858 -2.1818,-1.2483992 -7.5135,-0.7279358 -7.5135,-0.7279358 C 1180.6491,27.556736 1151.5284,34.502968 1065.9336,70.317737 980.3389,106.13251 842.65044,168.67261 757.2677,206.35015 c 0,0 -5.23322,2.12418 -6.22459,4.48091 -2.82658,6.71952 2.08333,17.77967 3.29505,21.58136 12.7061,39.86471 41.92035,101.29626 44.45446,109.04485 1.93775,5.92511 -0.54178,14.28819 -5.96445,16.19502 -25.42111,8.93908 -102.31038,41.88396 -102.32508,43.62881 l -58.89481,35.89338"
     id="path2"
     style="stroke:#ef4444;stroke-width:10;stroke-dasharray:none;stroke-opacity:1"
     sodipodi:nodetypes="ccaccacscassscc" /><path
     vector-effect="non-scaling-stroke"
     class="st2"
     d="m 631.60828,437.17448 c -14.75,7.825 -16.13732,8.63154 -20.99083,15.96316 -2.35127,3.55178 -3.63707,8.15489 -3.14471,12.37803 0.97584,8.37023 10.49108,14.03441 11.70137,22.37306 0.46163,3.1805 0.78281,7.62127 -1.84941,9.47423 -117.00869,82.36897 -94.62061,73.01887 -165.16326,124.03994 -6.99465,5.05898 -14.46652,9.47517 -21.16786,14.91819 -4.62774,3.75879 -7.26828,10.92138 -13.08353,12.19782 -2.8624,0.6283 -5.90636,-1.12573 -8.32969,-2.76211 -3.03265,-2.04783 -5.62801,-5.06888 -7.09897,-8.37604 -15.34192,-34.49313 -25.84221,-79.82583 -38.33761,-116.11826 -1.30595,-3.7931 -8.10554,1.21939 -12.03241,0.40789 -5.39001,-1.11386 -9.62212,-5.56157 -14.91817,-7.05578 -10.56196,-2.97989 -23.41504,2.20456 -32.74631,-3.56141 -4.52223,-2.79437 -5.9818,-8.80566 -8.63439,-13.4157 -4.51956,-7.85473 -3.95569,-24.47543 -12.37251,-24.21234 C 261.82807,474.1007 176.78655,509.99697 146.3,524.3 c -18.84453,8.84107 -37.14854,18.90731 -54.854795,29.86421 -13.93851,8.62536 -30.359496,15.13381 -40.319034,28.16246 -16.602758,21.71903 -18.878026,51.3002 -27.670276,77.17448 -6.175321,18.17304 -14.921445,35.82491 -17.6122468,54.81873 -1.9685794,13.89579 0.5345385,28.05289 1.2449502,42.05987 0.7620581,15.02528 2.9847346,29.96963 3.2358736,45.01404 0.372868,22.33652 1.319796,43.69177 -2.5705108,66.9831 -0.6568117,3.93234 7.7650498,1.87636 11.4322288,3.41264 19.397665,8.12618 43.757943,24.53064 55.257943,30.43064 38.199997,20 82.269077,42.37663 119.969077,62.97663"
     id="path3"
     style="stroke:#3bb8f6;stroke-width:10;stroke-dasharray:none;stroke-opacity:1"
     sodipodi:nodetypes="caaasaaaassaaaassaaaaaasacc" /><path
     vector-effect="non-scaling-stroke"
     class="st3"
     d="m 194.41321,965.1968 c 29.1,15.6 27.398,3.10715 32.90452,-6.63021 12.35584,-21.8492 37.99061,-80.71754 53.05594,-101.30259 8.6964,-11.88263 16.37613,-13.43944 45.42633,-39.664 23.9463,-21.61711 52.42905,-39.71973 70.14522,-66.68422 4.429,-6.74105 6.34632,-15.07351 8.82747,-22.8093 5.32558,-15.16901 9.57493,-30.60654 14.88224,-45.78171 2.62742,-7.63509 3.58763,-13.96848 8.30916,-20.50814 12.00907,-16.63341 30.05618,-25.79097 45.48374,-38.19875 17.09636,-13.74993 36.05003,-27.4439 52.15117,-40.15014 23.67847,-18.6859 47.72191,-37.63092 72.98027,-54.45619 21.82302,-14.5369 44.25752,-28.30946 67.69578,-40.04648 34.79071,-17.4219 71.77124,-30.03385 107.74677,-44.83138 119.95987,-49.34215 231.87328,-97.76087 360.47328,-146.56087"
     id="path4"
     style="stroke:#fbf124;stroke-width:10;stroke-dasharray:none;stroke-opacity:1"
     sodipodi:nodetypes="cssassssasaaac" /></g></svg>
