<?xml version="1.0" encoding="UTF-8" standalone="no"?>
<!-- Generator: Adobe Illustrator 25.2.3, SVG Export Plug-In . SVG Version: 6.00 Build 0)  -->

<svg
   version="1.1"
   id="Layer_1"
   x="0px"
   y="0px"
   viewBox="0 0 1460 920"
   style="enable-background:new 0 0 1460 920;"
   xml:space="preserve"
   sodipodi:docname="19 - singapore.svg"
   inkscape:version="1.3.2 (091e20e, 2023-11-25, custom)"
   xmlns:inkscape="http://www.inkscape.org/namespaces/inkscape"
   xmlns:sodipodi="http://sodipodi.sourceforge.net/DTD/sodipodi-0.dtd"
   xmlns="http://www.w3.org/2000/svg"
   xmlns:svg="http://www.w3.org/2000/svg"><defs
   id="defs4" /><sodipodi:namedview
   id="namedview4"
   pagecolor="#505050"
   bordercolor="#eeeeee"
   borderopacity="1"
   inkscape:showpageshadow="0"
   inkscape:pageopacity="0"
   inkscape:pagecheckerboard="0"
   inkscape:deskcolor="#d1d1d1"
   inkscape:zoom="0.88000892"
   inkscape:cx="1026.6941"
   inkscape:cy="488.06324"
   inkscape:window-width="3840"
   inkscape:window-height="2054"
   inkscape:window-x="-11"
   inkscape:window-y="-11"
   inkscape:window-maximized="1"
   inkscape:current-layer="Layer_1" />
<style
   type="text/css"
   id="style1">
	.st0{fill:none;stroke:#374151;stroke-width:8;}
	.st1{fill:none;stroke:#EF4444;stroke-width:2;}
	.st2{fill:none;stroke:#3B82F6;stroke-width:2;}
	.st3{fill:none;stroke:#FBBF24;stroke-width:2;}
</style>
<path
   vector-effect="non-scaling-stroke"
   class="st1"
   d="m 1406.0455,517.27258 c 0,0 -26.5933,-186.44111 -53.0455,-403.77258 -1.7731,-14.567509 0.1164,-33.659384 -11.625,-42.4625 -7.3019,-5.474604 -18.2579,0.871231 -27.375,0.4625 -8.6152,-0.386229 -17.6852,0.369652 -25.725,-2.75 -11.6758,-4.530489 -21.3322,-13.482165 -30.275,-22.25 -7.9519,-7.796297 -10.2894,-21.671157 -20.3125,-26.524186 -7.0362,-3.406817 -17.1274,-4.236061 -23.45,0.361686 -13.8803,10.093623 -13.5227,31.849735 -16.6222,48.729799 -3.339,18.184534 -3.7203,37.032921 -1.9108,55.432701 1.0971,11.15517 4.1695,22.09341 7.683,32.7375 9.1328,27.66752 25.6001,52.55552 34.6125,80.2625 6.0459,18.58697 9.9117,37.88427 12.9,57.2 2.5762,16.65184 4.2826,33.51666 4.3003,50.3666 0.014,12.85546 4.7624,28.3409 -3.2003,38.4334 -14.7026,18.6352 -51.63,23.1758 -67.6422,22.25937 C 1061.204,398.71093 959.62005,389.34088 838.2875,383.1375 825.54782,382.48616 812.81697,380.35161 800.52134,376.95436 787.90162,373.46756 775.77662,368.22069 764,362.5 712.00271,337.24145 659.15368,301.59884 614.15368,275.19884"
   id="path2"
   style="stroke:#ef4444;stroke-width:10;stroke-dasharray:none;stroke-opacity:1"
   sodipodi:nodetypes="csaaaaaaaaaaaaassaac" />

<path
   vector-effect="non-scaling-stroke"
   class="st2"
   d="M 614.15368,275.19884 C 582.41116,256.86989 537.82867,230.1821 503,208.5 c -2.90834,-1.81055 -6.70212,-2.5644 -10.08114,-1.99981 -3.58744,0.59941 -6.88929,2.88599 -9.43136,5.48731 C 466.26573,229.61069 451.79798,252.48664 437,273.5 c -7.34204,10.42581 -14.54715,20.97974 -20.9625,32 -9.38842,16.1274 -15.1082,34.35067 -25.575,49.8 -5.25597,7.75798 -9.09859,20.84115 -18.4625,21.2 -12.6218,0.4837 -18.37079,-17.36359 -27,-26.5875 -5.23368,-5.59437 -10.03256,-11.58045 -15,-17.4125 -5.48193,-6.43609 -10.48604,-13.29792 -16.3375,-19.4 C 302.18924,301.13534 289.97766,289.81354 277,279.5 c -6.31477,-5.01844 -12.93191,-9.72061 -19.95543,-13.68688 -7.09724,-4.00788 -14.10969,-10.35835 -22.25707,-10.12562 -7.34461,0.2098 -13.40167,6.17525 -19.51029,10.2584 -5.86996,3.92363 -11.62353,8.24425 -16.27721,13.5541 -9.53703,10.88176 -15.81508,24.24722 -23.1625,36.7125 C 169.21575,327.44665 163.41485,339.14643 157,350.5 140.75383,379.25388 122.93412,407.11748 107.2375,436.175 92.296026,463.8346 79.961376,492.85116 65,520.5 60.368465,529.05914 55.457802,537.47229 50.3,545.725 39.08324,563.6723 27.500509,581.42199 15,598.5 c -1.509332,2.06203 -4.184796,3.5052 -4.7857,5.98894 -0.9785046,4.04448 1.283211,8.24867 2.4732,12.23606 2.133018,7.14726 2.067329,9.26496 8.3125,20.775 6.753309,12.44655 13.230573,19.67876 24.064822,29.32811 10.83425,9.64936 24.025485,17.71586 36.797678,23.83099 5.116989,2.44994 11.378488,1.00934 16.815316,2.63004 3.267604,0.97406 7.130914,1.59851 9.322184,4.21086 2.79258,3.32921 2.71026,8.31712 3.21757,12.63276 1.24708,10.60897 -1.70778,21.42958 -0.49257,32.04224 1.30209,11.37137 2.32401,23.54803 8.275,33.325 8.00088,13.14475 22.88802,20.58471 34.6875,30.4625 15.79576,13.22322 33.8859,23.83264 48.3125,38.5375 8.06057,8.21604 14.50687,17.90511 21.0125,27.4 5.42728,7.92105 7.90551,18.11589 14.9875,24.6 3.32871,3.04769 7.62476,5.93745 12.1375,6 3.98562,0.0552 8.32211,-1.92842 10.8625,-5 4.96251,-6.00016 4.03586,-15.04987 5.6125,-22.675 C 270.92236,843.24062 262.93664,904.16028 287,759.5 294.89166,712.05818 300.14958,664.02373 311.85,617.375 322.76879,573.84256 354,489.5 354,489.5"
   id="path3"
   style="stroke:#3b6df6;stroke-width:10;stroke-dasharray:none;stroke-opacity:1"
   sodipodi:nodetypes="csasaaaaaaaaaaaaaaaaaaaasssaaaaaaaaaaaaaac" />
<path
   vector-effect="non-scaling-stroke"
   class="st3"
   d="m 354,489.5 c 0,0 18.88064,-53.40572 28.53296,-76.05242 1.45503,-3.41385 4.82809,-6.73163 8.5125,-7.175 7.86086,-0.94595 14.62617,6.26354 21.275,10.5625 32.84959,21.23965 60.42307,49.69863 90.725,74.4375 15.6024,12.73799 30.32105,26.66193 46.9,38.1 15.25665,10.5258 30.58749,21.82794 48.1,27.9 8.90783,3.08859 18.61968,3.05208 28,4 64.77572,6.54584 194.97093,11.61975 194.97093,11.61975 0,0 146.23313,6.5927 217.31831,14.61442 7.3491,0.9424 18.2444,1.13712 21.7108,4.76583 6.9507,7.27625 -1.0368,36.04249 10,52 6.8206,9.8616 18.0295,16.71007 29.25,20.9375 12.7741,4.81277 27.1351,3.07474 40.75,4.0625 19.469,1.41248 39.0054,1.66281 58.5,2.6625 19.5061,1.00028 39.013,2.01698 58.5,3.3375 21.4626,1.45439 42.8395,4.28102 64.3375,5.05 11.8973,0.42556 24.1182,2.45223 35.7138,-0.24366 3.5873,-0.83402 7.3258,-2.22085 9.9487,-4.80634 9.8121,-9.67221 16.3174,-24.03678 25.2428,-36.71324 9.2154,-13.08836 19.2441,-26.66987 22.7572,-42.28676 2.3321,-10.36691 -0.5371,-21.26663 -1.6305,-31.83619 -1.6374,-15.82756 -6.051,-35.92856 -7.3695,-47.16381"
   id="path4"
   style="stroke:#f9fb24;stroke-width:10;stroke-dasharray:none;stroke-opacity:1"
   sodipodi:nodetypes="csaaaaaacasaaaaaaassaac" />
</svg>
