<?xml version="1.0" encoding="UTF-8" standalone="no"?>
<!-- Generator: Adobe Illustrator 25.2.3, SVG Export Plug-In . SVG Version: 6.00 Build 0)  -->

<svg
   version="1.1"
   id="Layer_1"
   x="0px"
   y="0px"
   viewBox="0 0 1649.9989 893.58026"
   xml:space="preserve"
   sodipodi:docname="19 - usa.svg"
   width="1649.9989"
   height="893.58026"
   inkscape:version="1.3.2 (091e20e, 2023-11-25, custom)"
   xmlns:inkscape="http://www.inkscape.org/namespaces/inkscape"
   xmlns:sodipodi="http://sodipodi.sourceforge.net/DTD/sodipodi-0.dtd"
   xmlns="http://www.w3.org/2000/svg"
   xmlns:svg="http://www.w3.org/2000/svg"><defs
   id="defs4" /><sodipodi:namedview
   id="namedview4"
   pagecolor="#505050"
   bordercolor="#eeeeee"
   borderopacity="1"
   inkscape:showpageshadow="0"
   inkscape:pageopacity="0"
   inkscape:pagecheckerboard="0"
   inkscape:deskcolor="#d1d1d1"
   inkscape:zoom="0.85086955"
   inkscape:cx="822.10017"
   inkscape:cy="396.65305"
   inkscape:window-width="2560"
   inkscape:window-height="1494"
   inkscape:window-x="3829"
   inkscape:window-y="198"
   inkscape:window-maximized="1"
   inkscape:current-layer="Layer_1" />
<style
   type="text/css"
   id="style1">
	.st0{fill:none;stroke:#374151;stroke-width:6.6462;stroke-miterlimit:3.3231;}
	.st1{fill:none;stroke:#EF4444;stroke-width:1.6615;stroke-miterlimit:3.3231;}
	.st2{fill:none;stroke:#3B82F6;stroke-width:1.6615;stroke-miterlimit:3.3231;}
	.st3{fill:none;stroke:#FBBF24;stroke-width:1.6615;stroke-miterlimit:3.3231;}
</style>




<path
   vector-effect="non-scaling-stroke"
   class="st1"
   d="m 132.58346,490.15807 c 0,0 90.54147,85.91726 135.85072,128.83526 38.43153,36.40325 76.72872,72.94946 115.35989,109.14079 12.44907,11.66282 25.17524,23.02998 37.51826,34.80497 12.67602,12.09267 24.37722,25.21934 37.51826,36.80497 9.8594,8.69241 19.38381,18.17401 30.92361,24.46677 10.21029,5.56778 23.07028,17.30325 33.01655,11.27648 4.32615,-2.62135 3.27553,-7.26454 2.29981,-14.99981 -5.18221,-41.08309 -19.06897,-70.70936 -27.04898,-121.13159 -3.1959,-20.1935 7.2248,-42.10044 20.17369,-57.92187 17.46674,-21.34152 46.74804,-29.38501 71.2081,-42.12288 13.69999,-7.13443 28.57869,-11.86103 42.19646,-19.15118 13.86898,-7.42464 29.03834,-13.72386 40.06078,-24.94794 7.83518,-7.97851 11.22608,-19.34997 17.21487,-28.79354 6.7278,-10.60889 11.26566,-23.36079 21.01366,-31.28471 11.28362,-9.17218 27.19793,-10.35791 40.41801,-16.41418 6.70833,-3.07315 14.69697,-4.67019 19.70184,-10.09211 8.22524,-8.91066 10.03589,-22.1216 13.94679,-33.60024 3.03806,-8.91682 3.19649,-18.83416 7.35567,-27.28642 3.89798,-7.92145 9.43573,-15.2231 16.05553,-21.0645 9.353,-8.25322 20.7755,-14.16251 32.35331,-18.80454 9.85244,-3.95025 20.38447,-8.35301 30.96084,-7.44998 12.27576,1.04813 22.9992,8.96735 33.94948,14.61397 8.55418,4.41104 24.67999,14.98598 24.67999,14.98598"
   id="path2"
   style="stroke:#ef4444;stroke-width:10;stroke-dasharray:none;stroke-opacity:0.641593"
   sodipodi:nodetypes="caaaaaassaaaaaaaaaaaaaac" /><path
   vector-effect="non-scaling-stroke"
   class="st2"
   d="m 929.3106,390.02177 c 0,0 22.96009,18.20035 36.71137,18.95447 13.02149,0.7141 25.50817,-7.04898 36.51733,-14.03951 9.175,-5.82586 15.8308,-14.89938 23.5333,-22.56694 6.7713,-6.74061 11.9385,-15.36527 19.9327,-20.59782 7.0237,-4.59734 15.2188,-8.22432 23.593,-8.80829 8.2983,-0.57867 17.3424,0.93927 24.3642,5.39906 6.0308,3.83037 8.8177,11.24529 13.0931,16.96924 5.3713,7.19109 6.8046,21.50471 15.7746,21.82252 22.6628,0.80295 49.499,-6.48479 74.2061,-7.32993 19.801,-0.67731 44.433,-5.15115 63.0358,-6.68899 12.7215,-1.05166 21.9315,-14.62528 31.8743,-23.22544 11.9573,-10.34263 22.153,-22.56196 33.1618,-33.90888 10.4776,-10.79941 20.7449,-21.80298 31.3035,-32.52323 10.2365,-10.39321 20.8658,-20.39558 31.0663,-30.8241 8.9528,-9.1529 17.4794,-18.71661 26.4444,-27.85758 7.9771,-8.13375 17.2913,-15.0466 24.3259,-24.00801 8.3779,-10.67266 16.1608,-19.43289 28.6552,-33.71893 3.4466,-3.94077 4.2024,-11.65353 0.8593,-15.6824 -4.0221,-4.84704 -12.4408,-2.71792 -18.7341,-2.46375 -12.0494,0.48663 -23.6099,4.93161 -35.3715,7.59431 -10.991,2.48826 -21.893,5.36032 -32.8878,7.83182 -10.99,2.47042 -22.015,4.78749 -33.0612,6.99295 -49.8124,9.94544 -99.5911,20.22444 -149.767,28.13436 -50.1815,7.9108 -100.6419,14.10224 -151.1758,19.3069 -51.48792,5.30292 -103.13785,9.0467 -154.80582,12.13667 -47.67575,2.85121 -95.426,4.33285 -143.16103,5.90545 -11.71356,0.3859 -23.43667,0.44656 -35.14907,0.86617 -34.47917,1.23526 -79.62065,1.40648 -114.40687,3.06909 -5.86462,0.2803 -6.27445,0.409 -7.75971,2.71144 -1.40498,2.17798 0.61651,7.77735 0.68964,7.74485 l 36.96517,61.88658"
   id="path3"
   style="stroke:#3bbff6;stroke-width:10;stroke-dasharray:none;stroke-opacity:1"
   sodipodi:nodetypes="caaaaaaasssaaaaassaaaaaaaaaccacc" /><path
   vector-effect="non-scaling-stroke"
   class="st3"
   d="m 629.13771,313.10385 c 0,0 27.87174,48.77124 32.53091,59.4959 4.42716,10.19064 2.30514,14.66312 -2.31156,19.12757 -8.46394,8.18481 -23.50318,4.49493 -35.1895,3.05995 -10.89213,-1.33747 -23.41852,-2.89823 -31.13369,-10.70229 -8.71274,-8.81312 -6.21799,-24.17236 -11.68253,-35.29538 -5.89564,-12.00052 -12.84601,-23.934 -22.4382,-33.24856 -7.87834,-7.65031 -17.13439,-15.16127 -27.83734,-17.61937 -8.99484,-2.06581 -21.94585,-4.24611 -27.51111,3.11612 -4.76365,6.3018 0.82391,16.08874 3.8564,23.38318 10.25909,24.67748 27.43669,51.1011 31.3704,60.14556 4.90861,11.28594 10.98384,22.14175 14.65417,33.8889 3.46605,11.09332 7.65597,22.59486 6.84256,34.18855 -0.8936,12.73673 -6.9355,24.7429 -12.68799,36.14166 -3.97065,7.868 -8.07541,16.24636 -14.86579,21.86439 -10.75133,8.89511 -25.27265,11.94464 -38.414,16.63711 -9.14829,3.26664 -18.31574,8.05728 -28.02942,7.97565 -25.01206,-0.21021 -51.00766,-7.87046 -71.81851,-21.74692 -11.67133,-7.78231 -18.67729,-21.01672 -26.74409,-32.49326 -12.29017,-17.48509 -21.76543,-36.78866 -32.7823,-55.10273 -10.78072,-17.9215 -17.61487,-39.02083 -32.60395,-53.60615 -4.79824,-4.66899 -10.52588,-9.19105 -17.4387,-9.96467 -6.29987,-0.70503 -18.06405,3.22353 -33.09788,6.92273 -15.03383,3.69919 -33.33731,11.16902 -52.71577,17.54653 -19.37846,6.37751 -37.8319,11.66271 -57.16565,18.99263 -19.33376,7.32993 -39.54784,12.70459 -54.447561,19.26104 -3.720165,1.63701 -4.763488,3.28182 -6.908629,10.04718 -2.494262,7.86642 52.01548,55.0389 52.01548,55.0389"
   id="path4"
   style="stroke:#fbe024;stroke-width:10;stroke-dasharray:none;stroke-opacity:1"
   sodipodi:nodetypes="csaaaaaaassaaaaaaaaaassssssc" /></svg>
