<?xml version="1.0" encoding="UTF-8" standalone="no"?>
<!-- Generator: Adobe Illustrator 25.2.3, SVG Export Plug-In . SVG Version: 6.00 Build 0)  -->

<svg
   version="1.1"
   id="Layer_1"
   x="0px"
   y="0px"
   viewBox="0 0 1681.6345 945.51036"
   xml:space="preserve"
   sodipodi:docname="20 - mexico.svg"
   width="1681.6344"
   height="945.51038"
   inkscape:version="1.3.2 (091e20e, 2023-11-25, custom)"
   xmlns:inkscape="http://www.inkscape.org/namespaces/inkscape"
   xmlns:sodipodi="http://sodipodi.sourceforge.net/DTD/sodipodi-0.dtd"
   xmlns="http://www.w3.org/2000/svg"
   xmlns:svg="http://www.w3.org/2000/svg"><defs
   id="defs4" /><sodipodi:namedview
   id="namedview4"
   pagecolor="#505050"
   bordercolor="#eeeeee"
   borderopacity="1"
   inkscape:showpageshadow="0"
   inkscape:pageopacity="0"
   inkscape:pagecheckerboard="0"
   inkscape:deskcolor="#d1d1d1"
   inkscape:zoom="0.94532595"
   inkscape:cx="762.17097"
   inkscape:cy="465.97684"
   inkscape:window-width="2560"
   inkscape:window-height="1494"
   inkscape:window-x="3829"
   inkscape:window-y="198"
   inkscape:window-maximized="1"
   inkscape:current-layer="Layer_1" />
<style
   type="text/css"
   id="style1">
	.st0{fill:none;stroke:#374151;stroke-width:6.912;stroke-miterlimit:3.456;}
	.st1{fill:none;stroke:#EF4444;stroke-width:1.728;stroke-miterlimit:3.456;}
	.st2{fill:none;stroke:#3B82F6;stroke-width:1.728;stroke-miterlimit:3.456;}
	.st3{fill:none;stroke:#FBBF24;stroke-width:1.728;stroke-miterlimit:3.456;}
</style>



<path
   vector-effect="non-scaling-stroke"
   class="st1"
   d="m 329.09134,75.590412 c 0,0 255.11612,2.185933 420.47816,1.645562 46.53592,-0.15207 132.10595,-6.008293 198.20884,-7.116969 46.4899,-0.779727 92.99256,0.227131 139.48896,0.327827 97.6857,0.11959 195.0506,-1.165621 292.6579,2.18829 13.9814,0.526654 59.2155,0.394716 62.3288,16.99143 2.3305,12.423738 -0.718,33.528098 -0.718,33.528098 0,0 -1.633,23.46444 1.929,33.23288 5.3746,14.73929 32.7489,7.50996 41.5316,20.14328 6.3813,9.1791 3.4473,22.20745 3.2073,33.38416 -0.4196,19.54483 -3.3068,39.13433 -8.1089,58.08469 -12.8056,50.53444 -28.5786,86.27255 -54.7501,146.49866 -37.4966,81.48405 -105.4475,242.07375 -105.4475,242.07375"
   id="path2"
   style="stroke:#ef4444;stroke-width:10;stroke-dasharray:none;stroke-opacity:0.621681"
   sodipodi:nodetypes="csaasscsaaacc" /><path
   vector-effect="non-scaling-stroke"
   class="st2"
   d="m 1319.8974,656.57207 c 0,0 -15.5455,31.36023 -23.2861,47.05623 -5.0879,10.31708 -10.6033,20.43634 -15.2215,30.97208 -3.692,8.42283 -9.7653,16.53369 -9.962,25.72805 -0.071,3.33317 0.5638,7.44403 3.2093,9.47294 8.4759,6.50042 17.7255,7.71814 26.2703,12.15118 8.1487,4.22756 18.9635,5.93289 23.9102,13.66615 1.7378,2.71678 2.0631,7.92906 0.8369,9.63892 -8.4567,11.79216 -18.4274,20.02385 -29.8172,31.00872 -11.1578,10.76113 -28.0641,28.3953 -39.6311,38.63638 -6.7437,5.97069 -10.3524,8.87758 -16.6173,8.7851 -3.7308,-0.0551 -7.641,-1.21513 -11.0977,-3.16176 -3.4567,-1.94662 -9.8032,-6.10625 -9.9575,-11.88113 -0.3957,-90.71132 -2,-183.43277 -2,-274.15001 0,0 -2.4238,-8.4297 -5.3189,-11.50816 -9.5974,-10.20515 -25.2513,-12.30311 -36.9968,-19.93844 -18.1768,-11.81609 -35.6933,-24.89918 -51.439,-39.8018 -13.0995,-12.39801 -20.9204,-30.1754 -35.4153,-40.90869 -8.2645,-6.11972 -18.2021,-10.10526 -28.2006,-12.50978 -14.6849,-3.53151 -30.1455,-2.04969 -45.2432,-2.46791 -18.39571,-0.50957 -36.81136,0.41584 -55.20821,-0.0493 -12.03903,-0.30443 -24.52825,1.59655 -36.08407,-1.7937 -7.55826,-2.21744 -15.22163,-5.91183 -20.49431,-11.7636 -5.36633,-5.9557 -6.57719,-14.62314 -9.74211,-21.98868 -3.99177,-9.28982 -6.02336,-19.60907 -11.66185,-28.00207 -4.63316,-6.89655 -10.02236,-14.34466 -17.67907,-17.57008 -40.98918,-17.26684 -78.67426,-31.89979 -114.56384,-45.69536 -19.35719,-7.44069 -40.84112,-7.65897 -61.51311,-9.31233 -44.01245,-3.52015 -132.45316,-1.24179 -132.45316,-1.24179"
   id="path3"
   style="stroke:#3bb5f6;stroke-width:10;stroke-dasharray:none;stroke-opacity:1"
   sodipodi:nodetypes="caaassasssssscaaaaaaaaaaassac" /><path
   vector-effect="non-scaling-stroke"
   class="st3"
   d="m 554.52017,329.94323 c 0,0 -136.40108,4.00219 -169.55976,-0.68421 -19.18002,-2.71076 -18.32614,-10.86591 -22.07969,-20.07858 -11.3298,-27.80777 -15.64643,-72.83886 -24.89196,-110.11107 -1.16914,-4.71322 -1.11238,-7.92176 -3.9111,-14.66551 -2.21362,-5.33389 -7.35937,-10.58466 -13.08232,-11.35816 -4.87864,-0.65939 -10.34165,2.45653 -13.3225,6.3745 -7.15667,9.40658 -10.23307,24.99679 -21.50503,29.79764 -12.26166,5.22237 -26.29679,-4.65391 -39.59295,-5.56683 -12.64084,-0.86792 -25.3617,0.82057 -38.0117,0.0981 -10.48413,-0.59878 -23.00751,2.7888 -31.28942,-3.66763 -4.14389,-3.2305 -5.17817,-9.49755 -5.59929,-14.73498 -0.79653,-9.90649 3.12257,-19.6928 6.00176,-29.20507 3.0963,-10.22953 6.44661,-20.61112 12.04619,-29.71469 7.06002,-11.4779 16.06755,-22.03178 26.58775,-30.452648 10.23974,-8.196389 21.69435,-16.356493 34.58835,-18.760164 22.16819,-4.132542 78.19284,-1.623516 78.19284,-1.623516"
   id="path4"
   style="stroke:#fbfa24;stroke-width:10;stroke-dasharray:none;stroke-opacity:1"
   sodipodi:nodetypes="cssssassaaaaaaasc" />
</svg>
