<?xml version="1.0" encoding="UTF-8" standalone="no"?>
<!-- Generator: Adobe Illustrator 25.2.3, SVG Export Plug-In . SVG Version: 6.00 Build 0)  -->

<svg
   version="1.1"
   id="Layer_1"
   x="0px"
   y="0px"
   viewBox="0 0 1542 866.99999"
   xml:space="preserve"
   sodipodi:docname="21 - brazil.svg"
   width="1542"
   height="867"
   inkscape:version="1.3.2 (091e20e, 2023-11-25, custom)"
   xmlns:inkscape="http://www.inkscape.org/namespaces/inkscape"
   xmlns:sodipodi="http://sodipodi.sourceforge.net/DTD/sodipodi-0.dtd"
   xmlns="http://www.w3.org/2000/svg"
   xmlns:svg="http://www.w3.org/2000/svg"><defs
   id="defs4" /><sodipodi:namedview
   id="namedview4"
   pagecolor="#505050"
   bordercolor="#eeeeee"
   borderopacity="1"
   inkscape:showpageshadow="0"
   inkscape:pageopacity="0"
   inkscape:pagecheckerboard="0"
   inkscape:deskcolor="#d1d1d1"
   inkscape:zoom="0.9151468"
   inkscape:cx="868.16672"
   inkscape:cy="460.58184"
   inkscape:window-width="2560"
   inkscape:window-height="1494"
   inkscape:window-x="3829"
   inkscape:window-y="198"
   inkscape:window-maximized="1"
   inkscape:current-layer="Layer_1" />
<style
   type="text/css"
   id="style1">
	.st0{fill:none;stroke:#374151;stroke-width:7.513;stroke-miterlimit:3.7565;}
	.st1{fill:none;stroke:#EF4444;stroke-width:1.8783;stroke-miterlimit:3.7565;}
	.st2{fill:none;stroke:#3B82F6;stroke-width:1.8783;stroke-miterlimit:3.7565;}
	.st3{fill:none;stroke:#FBBF24;stroke-width:1.8783;stroke-miterlimit:3.7565;}
</style>



<path
   vector-effect="non-scaling-stroke"
   class="st1"
   d="m 451.4,130.17343 c 0,0 -89.99397,23.03459 -149.21757,40.07766 -37.98038,10.92981 -75.73151,19.1644 -115.4117,31.21018 -29.98321,9.10205 -68.37144,20.98618 -79.40453,50.31382 -5.06799,13.47149 2.46279,31.70277 12.19672,41.42136 19.13623,19.10609 44.59401,28.88045 49.29715,51.66711 3.30815,16.02795 -9.02786,31.54909 -15.44011,46.60639 -6.46381,15.17833 -19.12314,27.76351 -23.08609,43.77781 -6.91386,27.93887 -7.33845,58.5169 0.009,86.34486 6.6418,25.15503 21.08991,48.56958 38.52322,67.88198 20.00637,22.16281 44.08602,44.42179 72.98492,51.92499 188.31191,48.89258 570.87946,146.86803 570.87946,146.86803"
   id="path2"
   style="stroke:#ff2d2d;stroke-width:12.3838;stroke-dasharray:none;stroke-opacity:1"
   sodipodi:nodetypes="cssassaaaasc" /><path
   vector-effect="non-scaling-stroke"
   class="st2"
   d="m 812.73057,788.26762 c 0,0 71.99402,18.75925 119.27893,30.4998 10.26618,2.54903 21.43577,3.58213 31.71508,1.08659 10.26015,-2.49088 21.03569,-7.23701 27.63484,-15.47875 12.69778,-15.85832 13.51988,-38.46481 17.43458,-58.39955 6.7595,-34.42115 14.1842,-69.87487 10.2653,-104.73386 -1.5675,-13.94378 -6.69,-27.56251 -13.3056,-39.93665 -8.47998,-15.8613 -20.22454,-30.05305 -33.09663,-42.6149 C 939.56158,526.39247 893.08781,498.63128 861.04667,476.29327 824.54718,454.07254 789.16734,424.38599 754.157,400.06221 718.65132,375.73769 664.04787,342.647 638.21775,307.31515 c -22.85783,-35.45132 -19.37091,-76.26871 1.24139,-113.76127 10.67976,-20.16986 18.95712,-32.21388 38.10727,-41.88837 19.15016,-9.6745 53.17311,-16.97948 75.34407,-19.67127 17.34192,-3.13234 44.30123,-8.26095 65.45641,-9.63374 21.15517,-1.3728 36.50623,1.01021 46.63166,20.90111 11.09817,32.09037 -35.25811,55.57195 -36.16983,86.03475 -2.77183,32.19379 25.6525,65.23526 57.24296,57.2323 27.62402,-5.53204 56.97515,-41.54671 76.32173,-60.46543 16.49548,-17.00343 35.08804,-35.61917 57.28629,-45.36878 22.1982,-9.74962 48.0022,-10.63311 70.9203,-16.17208 39.8801,-8.51083 59.3869,21.56801 27.7609,53.76165 -18.1002,13.47169 -62.1776,56.09219 -78.6706,71.42382 -24.8058,25.96945 -30.9567,47.2395 -29.6481,83.64979 0.021,69.7208 71.1305,109.01163 127.3096,138.44394"
   id="path3"
   style="stroke:#3ac4f2;stroke-width:12.3838;stroke-dasharray:none;stroke-opacity:1"
   sodipodi:nodetypes="csaaaaaaccccscsccccsccccc" /><path
   vector-effect="non-scaling-stroke"
   class="st3"
   d="m 1137.3518,511.80157 c 0,0 62.0561,40.29021 95.7624,57.42059 6.5872,3.34781 14.7369,5.61739 21.8628,3.66264 9.4327,-2.58752 20.1,-11.80063 22.4157,-18.93593 13.3225,-41.04934 37.4673,-79.44412 40.6082,-122.277 1.9385,-26.43527 -7.9056,-52.46883 -13.7856,-78.31467 -4.4453,-19.53987 -8.2733,-39.49142 -16.2172,-57.88875 -10.8276,-25.07557 -22.2035,-54.81476 -37.2759,-80.12307 -12.3785,-20.78484 -25.781,-41.09397 -43.2737,-58.26247 -24.6188,-24.16247 -63.7857,-32.21412 -97.6222,-43.25331 -28.6172,-9.33637 -58.8615,-12.6414 -88.2517,-19.147338 C 986.91457,87.009753 952.57333,77.822453 917.69207,71.228223 878.32266,63.785516 838.93767,53.170491 798.87104,53.071518 754.95149,52.963026 711.5403,63.453369 668.5271,72.330503 595.17309,87.469425 451.4,130.17343 451.4,130.17343"
   id="path4"
   style="stroke:#dce437;stroke-width:12.3838;stroke-dasharray:none;stroke-opacity:1"
   sodipodi:nodetypes="csasaasasaaaaac" />
</svg>
