<?xml version="1.0" encoding="UTF-8" standalone="no"?>
<!-- Generator: Adobe Illustrator 25.2.3, SVG Export Plug-In . SVG Version: 6.00 Build 0)  -->

<svg
   version="1.1"
   id="Layer_1"
   x="0px"
   y="0px"
   viewBox="0 0 1542 866.99999"
   xml:space="preserve"
   sodipodi:docname="23 - Qatar.svg"
   width="1542"
   height="867"
   inkscape:version="1.3.2 (091e20e, 2023-11-25, custom)"
   xmlns:inkscape="http://www.inkscape.org/namespaces/inkscape"
   xmlns:sodipodi="http://sodipodi.sourceforge.net/DTD/sodipodi-0.dtd"
   xmlns="http://www.w3.org/2000/svg"
   xmlns:svg="http://www.w3.org/2000/svg"><defs
   id="defs4" /><sodipodi:namedview
   id="namedview4"
   pagecolor="#505050"
   bordercolor="#eeeeee"
   borderopacity="1"
   inkscape:showpageshadow="0"
   inkscape:pageopacity="0"
   inkscape:pagecheckerboard="0"
   inkscape:deskcolor="#d1d1d1"
   inkscape:zoom="0.63130313"
   inkscape:cx="591.63337"
   inkscape:cy="393.63024"
   inkscape:window-width="2560"
   inkscape:window-height="1494"
   inkscape:window-x="3829"
   inkscape:window-y="198"
   inkscape:window-maximized="1"
   inkscape:current-layer="Layer_1"
   showgrid="false"><inkscape:grid
     id="grid1"
     units="px"
     originx="0"
     originy="0"
     spacingx="1"
     spacingy="0.99999999"
     empcolor="#0099e5"
     empopacity="0.30196078"
     color="#0099e5"
     opacity="0.14901961"
     empspacing="5"
     dotted="false"
     gridanglex="30"
     gridanglez="30"
     visible="false" /></sodipodi:namedview>
<style
   type="text/css"
   id="style1">
	.st0{fill:none;stroke:#374151;stroke-width:6.912;stroke-miterlimit:3.456;}
	.st1{fill:none;stroke:#EF4444;stroke-width:1.728;stroke-miterlimit:3.456;}
	.st2{fill:none;stroke:#3B82F6;stroke-width:1.728;stroke-miterlimit:3.456;}
	.st3{fill:none;stroke:#FBBF24;stroke-width:1.728;stroke-miterlimit:3.456;}
</style>



<path
   vector-effect="non-scaling-stroke"
   class="st1"
   d="m 836.51609,830.19605 c -238.54681,-1.86377 -121.22583,0.93179 -359.87073,0.26897 -29.07201,-0.48934 -77.04656,1.7076 -105.994,0.28544 -32.05541,1.10453 -37.76693,-2.77028 -51.85819,-13.7868 -9.38595,-7.33792 -15.66644,-19.49657 -17.24688,-31.30518 -1.73929,-12.99549 1.72152,-27.49773 9.25275,-38.23031 17.03742,-24.27964 49.1443,-33.24216 74.21063,-49.09945 24.09307,-15.24158 45.28221,-22.97264 76.05359,-42.57827 11.81974,-7.53081 17.10465,-24.41274 17.06139,-38.42765 -0.0425,-13.77721 -6.36116,-28.92386 -17.00491,-37.67165 -26.53961,-21.81213 -64.07104,-34.21902 -98.04375,-53.63158 0,0 -22.61396,-9.84917 -31.6458,-17.93982 -7.83062,-7.01462 -13.91966,-15.14885 -18.46738,-25.56693 -33.08462,-75.79132 -55.91233,-151.94588 -86.10374,-240.1114 -6.47169,-18.89875 -15.93427,-39.56238 -10.9789,-58.91412 1.76009,-6.8735 4.03978,-14.26571 8.79699,-19.63112 5.71716,-6.44808 22.15687,-13.32088 22.15687,-13.32088 l 63.13668,-22.61846 c 0,0 18.1281,-5.05522 27.22982,-3.93208 7.29819,0.90058 14.50104,3.99274 20.41274,8.36612 6.38186,4.72119 12.53527,12.24824 15.08382,18.42927 12.717,30.84269 38.63256,107.06762 38.63256,107.06762"
   id="path2"
   style="stroke:#ec2b2b;stroke-width:10;stroke-dasharray:none;stroke-opacity:0.818584"
   sodipodi:nodetypes="cccaaassascasssaccaasc" /><path
   vector-effect="non-scaling-stroke"
   class="st2"
   d="m 411.32965,257.84777 c 0,0 17.56589,55.89067 29.61463,78.22758 3.74179,6.93684 12.75555,10.7913 20.59371,11.61833 7.23172,0.76303 15.59276,-1.46176 20.81912,-6.51795 7.79077,-7.5371 9.43672,-19.93431 10.73773,-30.69588 4.49361,-37.16991 11.39309,-122.50898 20.68182,-185.96322 3.21215,-21.94323 0.56082,-47.337789 13.88453,-65.066357 8.29113,-11.03219 22.73754,-18.4038 36.48947,-19.559823 15.86401,-1.33357 34.23342,3.746368 45.26988,15.219897 15.78957,16.414874 11.29672,44.218151 19.24413,65.562873 6.42548,17.25719 12.72965,34.92204 22.89706,50.27525 11.71832,17.69515 28.66754,31.30379 43.04922,46.91162 12.47513,13.53874 32.40861,22.8501 37.50835,40.53962 9.33595,32.38368 -11.4477,66.44783 -18.62,99.37838 -3.90639,17.93556 -14.06308,35.10151 -13.28695,53.44114 0.48143,11.37588 2.16159,25.17207 11.013,32.33412 14.31739,11.58482 36.67147,9.35611 54.86718,6.50798 31.38954,-4.91333 60.04226,-22.31714 86.69396,-39.61254 21.7206,-14.0954 41.60377,-31.55434 58.26359,-51.37644 18.39226,-21.88338 32.09034,-47.52004 44.80521,-73.12258 18.69481,-37.64366 45.84941,-117.45938 45.84941,-117.45938"
   id="path3"
   style="stroke:#3bcff6;stroke-width:10;stroke-dasharray:none;stroke-opacity:1"
   sodipodi:nodetypes="csaassaaaaaaaaaaaaaac" /><path
   vector-effect="non-scaling-stroke"
   class="st3"
   d="m 1001.7047,168.49039 c 18.8616,-52.14005 19.1712,-58.86434 41.8783,-77.466305 11.3867,-9.328104 27.5103,-12.386453 42.2194,-12.944198 26.1397,-0.991173 53.4968,0.494879 79.2947,0 13.0321,-0.249994 27.428,-0.398718 38.5864,6.338425 13.1508,7.940108 19.3577,23.923638 27.7886,36.765288 7.5361,11.4788 13.5227,23.90315 20.2782,35.8581 8.2292,14.56321 17.5728,28.55218 24.6733,43.69784 5.2249,11.1449 14.1097,22.25563 13.1039,34.52334 -1.3723,16.73871 -15.8058,29.71961 -25.3132,43.56436 -17.4747,25.44682 -53.6476,67.5767 -80.8567,101.05441 -12.4924,15.37056 -27.1313,29.15406 -37.8288,45.82374 -6.9023,10.75576 -16.9767,21.72974 -16.7101,34.50697 0.6217,29.78911 26.8919,53.24097 42.2807,78.75495 36.5091,60.53068 81.1248,115.86999 118.4717,175.88735 9.7346,15.64368 23.9401,29.87524 27.4894,47.95533 2.5081,12.77636 0.248,26.87848 -5.1727,38.71662 -10.1005,22.05813 -30.8296,27.05556 -42.6626,28.03987 -17.5015,1.45581 -40.1098,1.34554 -65.3033,1.47533 -49.7299,-1.86287 -317.95151,2.61462 -367.40581,-0.84576"
   id="path4"
   style="stroke:#fbed24;stroke-width:10;stroke-dasharray:none;stroke-opacity:0.654664"
   sodipodi:nodetypes="cassaaaaaaaaaaaaascc" />
</svg>
