<?xml version="1.0" encoding="UTF-8" standalone="no"?>
<!-- Generator: Adobe Illustrator 25.2.3, SVG Export Plug-In . SVG Version: 6.00 Build 0)  -->

<svg
   version="1.1"
   id="Layer_1"
   x="0px"
   y="0px"
   viewBox="0 0 1546.2 970.2"
   style="enable-background:new 0 0 1546.2 970.2;"
   xml:space="preserve"
   sodipodi:docname="24 - abudhabi.svg"
   inkscape:version="1.3.2 (091e20e, 2023-11-25, custom)"
   xmlns:inkscape="http://www.inkscape.org/namespaces/inkscape"
   xmlns:sodipodi="http://sodipodi.sourceforge.net/DTD/sodipodi-0.dtd"
   xmlns="http://www.w3.org/2000/svg"
   xmlns:svg="http://www.w3.org/2000/svg"><defs
   id="defs4" /><sodipodi:namedview
   id="namedview4"
   pagecolor="#505050"
   bordercolor="#eeeeee"
   borderopacity="1"
   inkscape:showpageshadow="0"
   inkscape:pageopacity="0"
   inkscape:pagecheckerboard="0"
   inkscape:deskcolor="#d1d1d1"
   inkscape:zoom="1"
   inkscape:cx="921.5"
   inkscape:cy="725.5"
   inkscape:window-width="2560"
   inkscape:window-height="1494"
   inkscape:window-x="3829"
   inkscape:window-y="198"
   inkscape:window-maximized="1"
   inkscape:current-layer="Layer_1" />
<style
   type="text/css"
   id="style1">
	.st0{fill:none;stroke:#374151;stroke-width:7.8545;stroke-miterlimit:3.9273;}
	.st1{fill:none;stroke:#EF4444;stroke-width:1.9636;stroke-miterlimit:3.9273;}
	.st2{fill:none;stroke:#3B82F6;stroke-width:1.9636;stroke-miterlimit:3.9273;}
	.st3{fill:none;stroke:#FBBF24;stroke-width:1.9636;stroke-miterlimit:3.9273;}
</style>




<path
   vector-effect="non-scaling-stroke"
   class="st1"
   d="m 699.29174,353.33301 -4.1146,239.80505 c 1.24666,4.23865 -6.1596,86.26737 2.58771,107.91354 6.00367,14.85673 27.73206,15.69407 42.63779,14.20174 45.90885,-4.59629 95.41849,-2.86374 140.86067,-10.21904 11.00898,-1.78192 20.83352,-9.22921 28.79005,-17.04371 10.07042,-9.89066 15.46799,-23.65159 22.22463,-36.04459 6.61667,-12.13627 9.64515,-26.31335 17.87927,-37.416 11.34095,-15.29182 25.04921,-30.18896 42.16539,-38.52522 17.65385,-8.5981 38.58035,-11.89851 58.09785,-9.74186 18.9595,2.09498 35.2794,14.52045 53.009,21.55683 19.9222,7.90655 39.1373,18.15139 59.9644,23.2149 48.012,11.67273 99.1572,13.83803 147.3741,15.92091"
   id="path2"
   style="stroke:#ef4444;stroke-width:8.41538;stroke-dasharray:none;stroke-opacity:1"
   sodipodi:nodetypes="ccsssaaaaaaac" /><path
   vector-effect="non-scaling-stroke"
   class="st2"
   d="m 1310.768,626.95556 c 0,0 88.4955,3.92793 114.7563,4.27272 21.1424,0.27759 18.6627,1.4025 27.7222,-0.42397 5.2904,-1.06658 10.7848,-2.69918 15.0199,-6.04429 6.7561,-5.33637 12.7904,-12.73659 14.93,-21.0759 0.8212,-3.20076 -0.085,-6.71343 -1.128,-9.84891 -1.0893,-3.27455 -2.9751,-6.31916 -5.2183,-8.94166 -3.3366,-3.90087 -7.6679,-6.87871 -11.9367,-9.72951 -4.3799,-2.92499 -9.2469,-5.04607 -13.9134,-7.48799 -17.6221,-9.22145 -35.0846,-18.80328 -53.1843,-27.04799 -12.519,-5.70261 -25.7782,-9.68874 -38.2584,-15.47569 -109.2439,-50.65527 -213.1848,-112.0402 -319.7614,-168.09049 -51.11313,-26.8812 -102.34947,-58.29199 -153.32416,-80.67255 -86.34362,-37.90936 -155.85243,-75.7519 -231.61163,-115.2655 -9.94303,-5.18597 -19.25195,-11.76406 -29.74824,-15.71198 -2.14925,-0.80839 -4.4623,-2.10247 -6.70167,-1.59455 -2.85524,0.6476 -6.33903,2.63454 -6.83148,5.52059 -1.95287,11.44506 -0.72051,25.78529 -2.35147,38.55819 -0.36198,2.8348 0.38944,6.40732 -1.64523,8.41413 -5.45022,5.3756 -15.00786,3.09529 -22.59738,4.09591 -9.731,1.28294 -52.15378,3.02528 -81.5425,10.16172 -19.31499,4.69025 -38.60335,10.42174 -56.49189,19.08589 -23.58946,11.42534 -45.14203,26.88634 -65.933,42.8468 -24.32936,18.67675 -45.99962,40.59718 -68.3733,61.5771 -50.42978,47.28828 -103.58987,92.23955 -148.40559,144.87884 -37.13328,43.61571 -98.889301,140.5411 -98.889301,140.5411"
   id="path3"
   style="stroke:#3bcbf6;stroke-width:8.41538;stroke-dasharray:none;stroke-opacity:1"
   sodipodi:nodetypes="csaaaaaaaaaassaasaaaaaaaac" /><path
   vector-effect="non-scaling-stroke"
   class="st3"
   d="m 65.349059,619.49757 c -11.37928,16.45901 -14.670069,19.80812 -20.518031,30.61036 -4.423997,8.17192 -11.196005,16.36878 -10.904054,25.65677 0.530626,16.88109 9.511193,34.75446 22.707851,45.2949 13.390543,10.6953 32.918387,14.49409 49.916555,12.31271 17.60138,-2.25879 35.06635,-12.06948 46.79374,-25.38786 9.09278,-10.32634 10.69397,-25.3914 14.93525,-38.48046 14.82864,-45.76284 20.4926,-84.09392 34.5462,-142.02573 2.29069,-9.44268 8.24415,-17.83937 14.4497,-25.31617 16.99519,-20.47677 34.33842,-35.84429 58.52376,-63.46868 6.62246,-7.56415 18.6789,-8.06958 28.63376,-9.47457 23.39631,-3.30205 47.78555,-3.83759 71.39681,-6.46304 6.67331,-0.74204 14.88207,2.21504 18.55741,7.83426 6.04576,9.24336 -0.51904,22.08755 -0.42664,33.13212 0.10997,13.14462 -3.38987,27.08814 1.16741,39.41795 3.27964,8.87313 10.14265,16.55514 17.81116,22.09432 4.94677,3.57319 11.23559,4.89146 17.14121,6.42827 5.91946,1.54042 12.07115,2.00825 18.14274,2.74902 9.7628,1.19112 19.85986,5.19436 29.37962,2.72347 8.61758,-2.23674 16.99421,-7.75284 22.03914,-15.08867 7.74638,-11.264 7.84659,-26.32307 9.52539,-39.89015 1.70306,-13.7632 0.21872,-27.73612 0.49208,-41.6016 0.61764,-31.3285 3.18766,-66.07561 2.59386,-93.96797 2.58103,-24.61856 2.7428,-37.6968 13.95663,-51.50366 14.45744,-17.80053 42.0913,-24.45279 61.30006,-31.22803 19.95828,-7.03962 47.63717,-19.48757 64.47932,-22.61731 13.14195,-2.44214 28.73474,0.49705 40.27996,2.96608 5.86979,1.25529 9.49561,7.47224 9.62155,15.2216 0.44805,27.57016 -4.07031,63.24021 -2.59976,93.90751"
   id="path4"
   style="stroke:#fbef24;stroke-width:8.41538;stroke-dasharray:none;stroke-opacity:1"
   sodipodi:nodetypes="caaaaassssssaaaaaaaaaacassssc" /></svg>
